<?xml version="1.0" encoding="UTF-8"?> <svg xmlns="http://www.w3.org/2000/svg" id="Layer_1" version="1.1" viewBox="0 0 109.91 40"><defs><style> .st0 { fill: gray; } .st1 { fill: #ce181e; } </style></defs><path class="st0" d="M5.46,28.4l3.97-8.4L18.87.05l9.24,19.53c-1.75.47-3.51.99-5.23,1.54-.06.02-.11.04-.17.06l-5.5-11.64-7.19,15.2-.86,1.82c-.51.24-1.01.48-1.51.73-.73.36-1.46.73-2.18,1.11ZM44.31,16.46c.11-.01.23-.02.34-.04.32-1.95.91-3.84,1.77-5.59,1.43-2.9,3.58-5.52,6.37-7.2,1.24-.75,2.58-1.31,3.95-1.54.48-.08.76-.09,1.15-.08-.05,0,.6.06.56.05.33.05.77.14,1.01.21,3.99,1.07,6.96,3.94,8.88,7.47h5.99c-2.05-3.79-5.28-6.88-9.52-8.48-7.72-2.92-17.16-.73-22.21,5.92-2.24,2.95-3.57,6.47-4.01,10.1,1.89-.32,3.81-.6,5.7-.82ZM30.96,26.06c-1.71.54-3.43,1.14-5.12,1.76l5.73,12.12h6.15l-6.59-13.94c-.06.02-.12.04-.17.05ZM61.51,36.93c-1.2.6-2.51.95-3.56,1.03.08-.02-.92-.02-.4.01-.34-.02-.55-.04-.65-.06-.77-.12-1.41-.3-2.15-.58-2.92-1.13-5.32-3.38-7.04-5.95-1.73-2.58-2.79-5.59-3.18-8.7-1.87.34-3.76.73-5.63,1.18-.04,0-.07.02-.11.03.4,2.27,1.15,4.48,2.26,6.51,4.09,7.5,12.62,10.75,20.86,9.14,5.58-1.1,9.86-4.65,12.4-9.29h-5.96c-1.57,2.82-3.85,5.2-6.83,6.69ZM108.51,25.66c-1.1-1.43-2.75-2.44-4.34-3.24-2.27-1.15-4.68-2.04-7.06-2.96-.15-.06-.64-.24-.75-.28-2.95-1.13-6.4-2.16-8.84-4.26-1.97-1.69-2.57-4.17-2.02-6.68,1.29-5.84,8.84-7.57,13.52-5.14,2.54,1.31,4.72,3.7,4.9,6.64h5.96c-.19-3.18-2.53-5.8-5.19-7.34-4.34-2.52-9.86-2.76-14.71-1.99-3.61.57-7.68,2.12-9.56,5.49-1.45,2.59-1.55,6.05.31,8.47,1.1,1.43,2.75,2.44,4.34,3.24,2.27,1.15,4.68,2.04,7.06,2.96.15.06.64.24.75.28,2.95,1.13,6.4,2.16,8.84,4.26,1.97,1.69,2.57,4.17,2.02,6.68-1.29,5.84-8.84,7.57-13.52,5.14-2.55-1.32-4.74-3.72-4.91-6.69h-5.96c.17,3.2,2.52,5.84,5.19,7.38,4.34,2.52,9.86,2.76,14.71,1.99,3.61-.57,7.68-2.12,9.56-5.49,1.45-2.59,1.55-6.05-.31-8.47Z"></path><path class="st1" d="M57.67,17.03c-4.47,0-8.87.26-13.21.77-2.01.24-4.01.53-5.99.87-3.32.57-6.58,1.29-9.79,2.15-1.82.49-3.62,1.02-5.4,1.59-5.19,1.67-10.22,3.72-15.05,6.1-1.26.62-2.51,1.26-3.74,1.93L0,39.94h0c1.36-.96,2.74-1.89,4.15-2.79,6.6-4.23,13.67-7.78,21.12-10.56,1.74-.65,3.5-1.26,5.29-1.82,2.64-.84,5.32-1.58,8.04-2.22,1.92-.45,3.85-.86,5.81-1.21,6.51-1.18,13.22-1.79,20.07-1.79,12.36,0,24.24,2,35.36,5.7-13.01-5.29-27.24-8.2-42.16-8.2Z"></path></svg> 