<svg xmlns="http://www.w3.org/2000/svg" width="80" height="80" viewBox="0 0 80 80" fill="none"><path d="M20.3657 60.1151C18.666 60.1151 17.0045 59.6111 15.5913 58.6668C14.1781 57.7225 13.0766 56.3804 12.4261 54.8101C11.7757 53.2397 11.6055 51.5118 11.9371 49.8448C12.2687 48.1778 13.0872 46.6465 14.289 45.4447C15.4909 44.2428 17.0221 43.4243 18.6892 43.0927C20.3562 42.7612 22.0841 42.9313 23.6544 43.5818C25.2247 44.2322 26.5669 45.3337 27.5112 46.7469C28.4555 48.1602 28.9595 49.8217 28.9595 51.5214C28.957 53.7998 28.0508 55.9842 26.4397 57.5953C24.8286 59.2064 22.6442 60.1126 20.3657 60.1151ZM20.3657 45.1151C19.0987 45.1151 17.8601 45.4908 16.8066 46.1948C15.7531 46.8987 14.932 47.8992 14.4471 49.0698C13.9622 50.2404 13.8354 51.5285 14.0826 52.7712C14.3298 54.0139 14.9399 55.1553 15.8358 56.0513C16.7318 56.9472 17.8732 57.5573 19.1159 57.8045C20.3586 58.0517 21.6467 57.9248 22.8173 57.44C23.9879 56.9551 24.9884 56.134 25.6923 55.0805C26.3963 54.027 26.772 52.7884 26.772 51.5214C26.7702 49.8229 26.0946 48.1945 24.8936 46.9935C23.6926 45.7925 22.0642 45.1169 20.3657 45.1151Z" fill="#004D8E"></path><path d="M20.3657 56.0769C19.4647 56.0769 18.5839 55.8098 17.8347 55.3092C17.0855 54.8086 16.5016 54.0971 16.1568 53.2647C15.812 52.4323 15.7218 51.5163 15.8976 50.6326C16.0734 49.7489 16.5073 48.9371 17.1444 48.3C17.7815 47.6629 18.5932 47.229 19.4769 47.0532C20.3606 46.8775 21.2766 46.9677 22.109 47.3125C22.9415 47.6573 23.653 48.2412 24.1535 48.9904C24.6541 49.7395 24.9213 50.6203 24.9213 51.5213C24.9195 52.729 24.4389 53.8867 23.585 54.7406C22.731 55.5946 21.5734 56.0751 20.3657 56.0769ZM20.3657 49.1538C19.8973 49.1538 19.4394 49.2927 19.05 49.553C18.6605 49.8132 18.357 50.1831 18.1778 50.6159C17.9985 51.0486 17.9517 51.5248 18.0431 51.9842C18.1345 52.4436 18.3601 52.8655 18.6914 53.1967C19.0226 53.5278 19.4447 53.7533 19.9041 53.8446C20.3635 53.9359 20.8397 53.889 21.2724 53.7096C21.7051 53.5303 22.0749 53.2267 22.335 52.8372C22.5952 52.4476 22.7339 51.9897 22.7338 51.5213C22.7331 50.8935 22.4834 50.2916 22.0394 49.8478C21.5954 49.4039 20.9935 49.1543 20.3657 49.1538Z" fill="#004D8E"></path><path d="M59.6345 60.1151C57.9348 60.1151 56.2733 59.6111 54.8601 58.6668C53.4469 57.7225 52.3454 56.3804 51.6949 54.8101C51.0445 53.2397 50.8743 51.5118 51.2059 49.8448C51.5375 48.1778 52.356 46.6465 53.5578 45.4447C54.7597 44.2428 56.2909 43.4243 57.958 43.0927C59.625 42.7612 61.3529 42.9313 62.9232 43.5818C64.4935 44.2322 65.8357 45.3337 66.78 46.7469C67.7243 48.1602 68.2283 49.8217 68.2283 51.5214C68.2258 53.7998 67.3196 55.9842 65.7085 57.5953C64.0974 59.2064 61.913 60.1126 59.6345 60.1151ZM59.6345 45.1151C58.3675 45.1151 57.1289 45.4908 56.0754 46.1948C55.0219 46.8987 54.2008 47.8992 53.7159 49.0698C53.2311 50.2404 53.1042 51.5285 53.3514 52.7712C53.5986 54.0139 54.2087 55.1553 55.1046 56.0513C56.0006 56.9472 57.142 57.5573 58.3847 57.8045C59.6274 58.0517 60.9155 57.9248 62.0861 57.44C63.2567 56.9551 64.2572 56.134 64.9611 55.0805C65.6651 54.027 66.0408 52.7884 66.0408 51.5214C66.039 49.8229 65.3634 48.1945 64.1624 46.9935C62.9614 45.7925 61.333 45.1169 59.6345 45.1151Z" fill="#004D8E"></path><path d="M59.6344 56.077C58.7333 56.0771 57.8525 55.81 57.1032 55.3095C56.354 54.809 55.77 54.0975 55.4251 53.2651C55.0802 52.4327 54.9899 51.5167 55.1656 50.6329C55.3413 49.7492 55.7751 48.9374 56.4122 48.3002C57.0493 47.6631 57.861 47.2291 58.7448 47.0533C59.6285 46.8775 60.5445 46.9676 61.377 47.3124C62.2094 47.6572 62.921 48.2411 63.4216 48.9903C63.9222 49.7395 64.1894 50.6203 64.1894 51.5213C64.1876 52.7289 63.7071 53.8865 62.8533 54.7404C61.9995 55.5943 60.8419 56.075 59.6344 56.077ZM59.6344 49.1538C59.1659 49.1533 58.7078 49.2918 58.318 49.5518C57.9282 49.8117 57.6243 50.1814 57.4447 50.6141C57.2651 51.0468 57.2179 51.5231 57.309 51.9826C57.4001 52.4422 57.6255 52.8644 57.9567 53.1958C58.2879 53.5272 58.7099 53.753 59.1693 53.8445C59.6288 53.936 60.1051 53.8891 60.538 53.7099C60.9708 53.5306 61.3408 53.227 61.601 52.8374C61.8613 52.4478 62.0001 51.9898 62 51.5213C61.9992 50.894 61.7497 50.2926 61.3063 49.8488C60.8629 49.4051 60.2617 49.1552 59.6344 49.1538Z" fill="#004D8E"></path><path d="M4.37505 45.1138C4.09593 45.1142 3.82722 45.0079 3.62395 44.8166C3.42068 44.6253 3.29824 44.3635 3.28171 44.0849C3.26517 43.8063 3.35579 43.5318 3.535 43.3178C3.71422 43.1038 3.96847 42.9665 4.24568 42.9338L7.6438 42.5245L8.92193 38.1595L5.90318 37.2545C5.76239 37.2162 5.63067 37.1502 5.51579 37.0603C5.4009 36.9703 5.30516 36.8583 5.23422 36.7309C5.16327 36.6034 5.11855 36.463 5.10267 36.318C5.0868 36.1729 5.10011 36.0262 5.1418 35.8864C5.1835 35.7466 5.25275 35.6165 5.34547 35.5039C5.43818 35.3912 5.5525 35.2983 5.68169 35.2305C5.81088 35.1627 5.95232 35.1214 6.09769 35.1091C6.24307 35.0968 6.38944 35.1137 6.52818 35.1588L10.5901 36.3751C10.8667 36.458 11.0994 36.6471 11.2372 36.9009C11.375 37.1548 11.4068 37.4529 11.3257 37.7301L9.5388 43.8301C9.47873 44.0355 9.35963 44.2188 9.19629 44.3571C9.03296 44.4955 8.83258 44.5828 8.62005 44.6082L4.50568 45.1045C4.46238 45.1103 4.41875 45.1135 4.37505 45.1138Z" fill="#F02801"></path><path d="M75.6251 48.8456C75.4479 48.846 75.2732 48.8031 75.1164 48.7206L69.5626 45.7994C68.9822 45.4955 68.4962 45.0384 68.1575 44.4776C67.8187 43.9168 67.6402 43.2739 67.6414 42.6188V40.8013C67.6415 40.6402 67.6773 40.4812 67.746 40.3355C67.8147 40.1898 67.9146 40.0611 68.0388 39.9585C68.163 39.8559 68.3082 39.7819 68.4642 39.7419C68.6202 39.7018 68.7831 39.6967 68.9414 39.7269L75.8282 41.0456C75.9693 41.0726 76.1037 41.1272 76.2237 41.2061C76.3437 41.285 76.447 41.3868 76.5277 41.5057C76.6084 41.6246 76.6649 41.7582 76.6939 41.8988C76.7229 42.0395 76.724 42.1845 76.697 42.3256C76.67 42.4667 76.6155 42.6011 76.5365 42.7211C76.4576 42.8411 76.3558 42.9444 76.2369 43.0251C76.1181 43.1058 75.9845 43.1622 75.8438 43.1913C75.7031 43.2203 75.5581 43.2214 75.417 43.1944L69.8314 42.125V42.6194C69.8308 42.8756 69.9004 43.1271 70.0326 43.3466C70.1648 43.566 70.3546 43.7451 70.5814 43.8644L76.1326 46.7844C76.3494 46.898 76.5219 47.0811 76.6223 47.3043C76.7227 47.5276 76.7454 47.778 76.6866 48.0157C76.6279 48.2533 76.4911 48.4644 76.2982 48.6151C76.1053 48.7658 75.8674 48.8474 75.6226 48.8469L75.6251 48.8456Z" fill="#F02801"></path><path d="M60.9239 37.3006C60.9008 37.3006 60.877 37.3006 60.8539 37.3006L38.1426 35.8563C37.9155 35.842 37.6985 35.7572 37.5219 35.6137C37.3453 35.4701 37.218 35.2751 37.1576 35.0556L34.3845 25.02C34.3398 24.8577 34.3331 24.6873 34.365 24.522C34.3969 24.3567 34.4666 24.201 34.5685 24.067C34.6703 23.933 34.8018 23.8243 34.9525 23.7494C35.1033 23.6744 35.2693 23.6353 35.4376 23.635H43.977C44.7236 23.6336 45.4519 23.8662 46.0595 24.3L61.557 35.3125C61.7458 35.447 61.887 35.638 61.9602 35.8579C62.0335 36.0779 62.035 36.3154 61.9646 36.5362C61.8942 36.7571 61.7554 36.9499 61.5684 37.0868C61.3814 37.2237 61.1557 37.2977 60.9239 37.2981V37.3006ZM39.0589 33.7225L57.157 34.8713L44.792 26.0825C44.555 25.9132 44.2708 25.8223 43.9795 25.8225H36.8751L39.0589 33.7225Z" fill="#F02801"></path><path d="M34.2501 35.6069H34.1808L20.2945 34.7257C20.129 34.715 19.9681 34.6669 19.8239 34.5851L12.6658 30.5226C12.4308 30.3889 12.2535 30.1731 12.1681 29.9166C12.0827 29.66 12.0952 29.381 12.2033 29.1332L14.3164 24.2944C14.4014 24.0998 14.5412 23.934 14.7187 23.8175C14.8963 23.701 15.104 23.6387 15.3164 23.6382H31.5483C31.7872 23.638 32.0196 23.716 32.21 23.8604C32.4004 24.0047 32.5383 24.2074 32.6026 24.4376L35.3064 34.2219C35.3513 34.3845 35.358 34.5552 35.326 34.7208C35.294 34.8864 35.2241 35.0423 35.1218 35.1764C35.0196 35.3106 34.8877 35.4192 34.7364 35.4939C34.5852 35.5685 34.4188 35.6072 34.2501 35.6069ZM20.6876 32.5563L32.7895 33.3244L30.717 25.8244H16.0364L14.6045 29.1051L20.6876 32.5563Z" fill="#F02801"></path><path d="M52.1345 52.6151H27.8657C27.5756 52.6151 27.2974 52.4999 27.0923 52.2948C26.8872 52.0896 26.772 51.8114 26.772 51.5214C26.772 51.2313 26.8872 50.9531 27.0923 50.748C27.2974 50.5428 27.5756 50.4276 27.8657 50.4276H52.1345C52.4246 50.4276 52.7028 50.5428 52.9079 50.748C53.113 50.9531 53.2282 51.2313 53.2282 51.5214C53.2282 51.8114 53.113 52.0896 52.9079 52.2948C52.7028 52.4999 52.4246 52.6151 52.1345 52.6151Z" fill="#004D8E"></path><path d="M12.8669 52.6157C12.7994 52.6156 12.732 52.6093 12.6656 52.5969L4.175 51.0194C3.92387 50.9727 3.69701 50.8396 3.53376 50.6431C3.37051 50.4467 3.28118 50.1992 3.28125 49.9438V41.7319C3.28023 40.7208 3.48923 39.7205 3.895 38.7944L11.045 22.4194C11.3733 21.6672 11.914 21.027 12.6007 20.5775C13.2875 20.128 14.0905 19.8887 14.9113 19.8888H43.9769C45.5022 19.886 46.9902 20.3609 48.2319 21.2469L63.5994 32.1701C67.4649 33.4106 71.1852 35.0647 74.6956 37.1038C75.3153 37.4786 75.8273 38.0074 76.1819 38.6388C76.5364 39.2703 76.7214 39.9828 76.7188 40.7069V51.5213C76.7186 51.8113 76.6033 52.0894 76.3982 52.2945C76.1931 52.4996 75.915 52.6149 75.625 52.6151H67.1344C66.8443 52.6151 66.5661 52.4998 66.361 52.2947C66.1559 52.0896 66.0406 51.8114 66.0406 51.5213C66.0406 51.2312 66.1559 50.953 66.361 50.7479C66.5661 50.5428 66.8443 50.4276 67.1344 50.4276H74.5313V40.7032C74.5325 40.3541 74.4433 40.0107 74.2723 39.7065C74.1013 39.4022 73.8544 39.1474 73.5556 38.9669C70.1354 36.9861 66.5099 35.3829 62.7431 34.1857C62.6424 34.1518 62.5472 34.1031 62.4606 34.0413L46.9606 23.0257C46.0887 22.4038 45.0441 22.0705 43.9731 22.0726H14.9106C14.5155 22.0723 14.1289 22.1875 13.7982 22.4039C13.4676 22.6203 13.2073 22.9285 13.0494 23.2907L5.89938 39.6688C5.61454 40.3191 5.4679 41.0214 5.46875 41.7313V49.0351L13.0656 50.4457C13.3334 50.4959 13.5729 50.6442 13.7371 50.8616C13.9013 51.079 13.9786 51.3498 13.9538 51.6211C13.9289 51.8925 13.8037 52.1447 13.6027 52.3287C13.4017 52.5126 13.1393 52.6149 12.8669 52.6157Z" fill="#004D8E"></path></svg>