<svg xmlns="http://www.w3.org/2000/svg" width="80" height="80" viewBox="0 0 80 80" fill="none"><path d="M62.2544 55.3269C62.1345 55.3269 62.0155 55.3072 61.9019 55.2688C54.8424 52.9107 47.4428 51.7316 40 51.7788C32.5573 51.7316 25.1576 52.9107 18.0982 55.2688C17.8503 55.3533 17.5804 55.346 17.3374 55.2483C17.0945 55.1505 16.8947 54.9689 16.7744 54.7363L3.40379 28.9375C3.28828 28.7148 3.25287 28.4592 3.30351 28.2135C3.35415 27.9678 3.48776 27.747 3.68192 27.5881C4.20817 27.1569 16.8363 17.0256 40 17.0256C63.1638 17.0256 75.7919 27.1506 76.3182 27.5881C76.5123 27.747 76.6459 27.9678 76.6966 28.2135C76.7472 28.4592 76.7118 28.7148 76.5963 28.9375L63.2257 54.7363C63.1335 54.9143 62.9941 55.0635 62.8228 55.1677C62.6515 55.2718 62.4549 55.3269 62.2544 55.3269ZM40 49.5913C47.3666 49.5506 54.6938 50.6684 61.7132 52.9038L74.2257 28.7638C71.2925 26.6938 59.3432 19.2188 40 19.2188C20.6107 19.2188 8.69754 26.6913 5.77379 28.7588L18.2869 52.9006C25.3064 50.6663 32.6336 49.5495 40 49.5913Z" fill="#004D8E"></path><path d="M29.9999 62.9688C29.2773 62.9687 28.5709 62.7543 27.97 62.3527C27.3692 61.9512 26.9009 61.3805 26.6244 60.7129C26.3478 60.0452 26.2754 59.3106 26.4164 58.6018C26.5573 57.893 26.9052 57.2419 27.4161 56.7308C27.927 56.2197 28.578 55.8716 29.2867 55.7304C29.9955 55.5893 30.7301 55.6614 31.3979 55.9377C32.0656 56.2141 32.6365 56.6822 33.0382 57.2829C33.4399 57.8835 33.6546 58.5899 33.6549 59.3125C33.6543 60.2818 33.269 61.2112 32.5838 61.8967C31.8985 62.5822 30.9692 62.9678 29.9999 62.9688ZM29.9999 57.8475C29.7098 57.8477 29.4262 57.9338 29.185 58.0952C28.9438 58.2565 28.7559 58.4858 28.645 58.7539C28.5341 59.0221 28.5053 59.3171 28.5621 59.6017C28.6189 59.8862 28.7589 60.1475 28.9642 60.3525C29.1696 60.5575 29.4311 60.697 29.7158 60.7534C30.0004 60.8097 30.2954 60.7804 30.5634 60.669C30.8313 60.5577 31.0603 60.3694 31.2212 60.1279C31.3821 59.8865 31.4678 59.6027 31.4674 59.3125C31.4666 58.9238 31.3117 58.5513 31.0366 58.2767C30.7615 58.002 30.3887 57.8477 29.9999 57.8475Z" fill="#F02801"></path><path d="M27.4375 48.6213C27.2257 48.6209 27.0186 48.559 26.8413 48.4433C26.664 48.3275 26.524 48.1627 26.4385 47.969C26.3529 47.7753 26.3254 47.5609 26.3593 47.3519C26.3932 47.1428 26.487 46.9481 26.6293 46.7913L43.0043 28.8082C43.1996 28.5933 43.4722 28.4647 43.7623 28.4508C44.0523 28.437 44.336 28.5388 44.5509 28.7341C44.7658 28.9294 44.8943 29.202 44.9082 29.4921C44.9221 29.7821 44.8202 30.0658 44.625 30.2807L28.25 48.2638C28.1472 48.3771 28.0218 48.4675 27.8818 48.5291C27.7418 48.5907 27.5904 48.6221 27.4375 48.6213Z" fill="#F02801"></path><path d="M29.9999 57.8476C29.9564 57.8477 29.913 57.8449 29.8699 57.8395C29.5821 57.8052 29.3196 57.658 29.1403 57.4303C28.961 57.2026 28.8795 56.9129 28.9136 56.6251L30.558 42.7813C30.5922 42.4934 30.7394 42.2309 30.9672 42.0515C31.195 41.8721 31.4848 41.7906 31.7727 41.8248C32.0606 41.859 32.3232 42.0062 32.5026 42.234C32.6819 42.4618 32.7635 42.7515 32.7293 43.0395L31.0861 56.8832C31.0543 57.149 30.9262 57.3939 30.7261 57.5716C30.5259 57.7493 30.2676 57.8475 29.9999 57.8476Z" fill="#F02801"></path><path d="M49.9999 62.9688C49.2773 62.9687 48.5709 62.7543 47.97 62.3527C47.3692 61.9512 46.9009 61.3805 46.6244 60.7129C46.3478 60.0452 46.2754 59.3106 46.4164 58.6018C46.5573 57.893 46.9052 57.2419 47.4161 56.7308C47.927 56.2197 48.578 55.8716 49.2867 55.7304C49.9955 55.5893 50.7301 55.6614 51.3979 55.9377C52.0656 56.2141 52.6365 56.6822 53.0382 57.2829C53.4399 57.8835 53.6546 58.5899 53.6549 59.3125C53.6543 60.2818 53.269 61.2112 52.5838 61.8967C51.8985 62.5822 50.9692 62.9678 49.9999 62.9688ZM49.9999 57.8475C49.7098 57.8477 49.4262 57.9338 49.185 58.0952C48.9438 58.2565 48.7559 58.4858 48.645 58.7539C48.5341 59.0221 48.5053 59.3171 48.5621 59.6017C48.6189 59.8862 48.7589 60.1475 48.9642 60.3525C49.1696 60.5575 49.4311 60.697 49.7158 60.7534C50.0004 60.8097 50.2954 60.7804 50.5634 60.669C50.8313 60.5577 51.0603 60.3694 51.2212 60.1279C51.3821 59.8865 51.4678 59.6027 51.4674 59.3125C51.4666 58.9238 51.3117 58.5513 51.0366 58.2767C50.7615 58.002 50.3887 57.8477 49.9999 57.8475Z" fill="#F02801"></path><path d="M47.4375 48.6213C47.2257 48.6209 47.0186 48.5591 46.8413 48.4433C46.664 48.3275 46.524 48.1628 46.4385 47.969C46.3529 47.7753 46.3254 47.5609 46.3593 47.3519C46.3932 47.1429 46.487 46.9481 46.6293 46.7913L63.0043 28.8082C63.2006 28.5974 63.472 28.4725 63.7597 28.4607C64.0474 28.4488 64.3282 28.5508 64.5412 28.7447C64.7541 28.9385 64.882 29.2085 64.8971 29.4961C64.9122 29.7837 64.8133 30.0656 64.6218 30.2807L48.25 48.2638C48.1472 48.3771 48.0218 48.4675 47.8818 48.5291C47.7418 48.5907 47.5904 48.6221 47.4375 48.6213Z" fill="#F02801"></path><path d="M49.9999 57.8476C49.9564 57.8477 49.913 57.8449 49.8699 57.8395C49.5821 57.8052 49.3196 57.658 49.1403 57.4303C48.961 57.2026 48.8795 56.9129 48.9136 56.6251L50.558 42.7813C50.5922 42.4934 50.7394 42.2309 50.9672 42.0515C51.195 41.8721 51.4848 41.7906 51.7727 41.8248C52.0606 41.859 52.3232 42.0062 52.5026 42.234C52.6819 42.4618 52.7635 42.7515 52.7293 43.0395L51.0861 56.8832C51.0543 57.149 50.9262 57.3939 50.7261 57.5716C50.5259 57.7493 50.2676 57.8475 49.9999 57.8476Z" fill="#F02801"></path></svg>