<svg xmlns="http://www.w3.org/2000/svg" width="80" height="80" viewBox="0 0 80 80" fill="none"><path d="M25.4263 22.5875C25.2661 22.5876 25.1078 22.5526 24.9626 22.4847C24.8175 22.4169 24.689 22.318 24.5863 22.195C21.6645 18.7 23.2257 15.5887 24.4801 13.0887C25.7638 10.53 26.7782 8.5087 24.5757 5.79495C24.406 5.56845 24.3307 5.28498 24.3657 5.00413C24.4006 4.72328 24.5431 4.4669 24.7631 4.28888C24.9831 4.11086 25.2636 4.02506 25.5455 4.0495C25.8275 4.07394 26.089 4.20673 26.2751 4.41995C29.3663 8.23245 27.7413 11.47 26.4351 14.0731C25.0888 16.7568 24.3601 18.5168 26.2645 20.7956C26.3978 20.9551 26.4828 21.1493 26.5097 21.3555C26.5365 21.5617 26.5041 21.7712 26.4161 21.9596C26.3282 22.1479 26.1884 22.3073 26.0131 22.4191C25.8378 22.5309 25.6342 22.5903 25.4263 22.5906V22.5875Z" fill="#004D8E"></path><path d="M35.3912 22.5875C35.231 22.5877 35.0727 22.5526 34.9275 22.4848C34.7824 22.417 34.6539 22.318 34.5512 22.195C31.6294 18.7 33.1906 15.5888 34.4444 13.0888C35.7287 10.53 36.7431 8.50876 34.5412 5.79501C34.3734 5.56844 34.2995 5.2858 34.335 5.00608C34.3706 4.72636 34.5128 4.47117 34.7319 4.29377C34.9511 4.11637 35.2303 4.03046 35.5113 4.05399C35.7923 4.07751 36.0534 4.20864 36.24 4.42001C39.3319 8.23251 37.7062 11.47 36.4 14.0731C35.0537 16.7569 34.3256 18.5169 36.23 20.7956C36.363 20.9553 36.4479 21.1495 36.4746 21.3557C36.5013 21.5618 36.4687 21.7712 36.3807 21.9595C36.2928 22.1478 36.153 22.3072 35.9777 22.419C35.8025 22.5307 35.5991 22.5903 35.3912 22.5906V22.5875Z" fill="#004D8E"></path><path d="M45.3561 22.5875C45.196 22.5877 45.0378 22.5526 44.8927 22.4848C44.7476 22.4169 44.6193 22.318 44.5168 22.195C41.5949 18.7 43.1561 15.5887 44.4105 13.0887C45.6936 10.53 46.708 8.5087 44.5061 5.79495C44.3364 5.56845 44.2612 5.28498 44.2961 5.00413C44.331 4.72328 44.4735 4.4669 44.6935 4.28888C44.9135 4.11086 45.194 4.02506 45.4759 4.0495C45.7579 4.07394 46.0194 4.20673 46.2055 4.41995C49.2968 8.23245 47.6711 11.47 46.3655 14.0731C45.0186 16.7568 44.2899 18.5168 46.1949 20.7956C46.327 20.9553 46.411 21.1493 46.4372 21.3549C46.4634 21.5605 46.4306 21.7693 46.3428 21.957C46.2549 22.1448 46.1155 22.3037 45.9408 22.4153C45.7662 22.5269 45.5634 22.5866 45.3561 22.5875Z" fill="#004D8E"></path><path d="M50.43 75.9874H20.6037C19.3637 75.9859 18.175 75.4927 17.2981 74.616C16.4212 73.7392 15.9279 72.5505 15.9262 71.3105V71.1905H12.9744C11.5881 71.1889 10.2591 70.6374 9.2789 69.6572C8.29868 68.677 7.74726 67.348 7.74561 65.9618V64.4055C7.74552 64.2619 7.77376 64.1196 7.8287 63.9869C7.88363 63.8541 7.96419 63.7335 8.06577 63.6319C8.16735 63.5304 8.28796 63.4498 8.4207 63.3949C8.55344 63.3399 8.6957 63.3117 8.83936 63.3118H62.195C62.3386 63.3117 62.4809 63.3399 62.6136 63.3949C62.7464 63.4498 62.867 63.5304 62.9686 63.6319C63.0701 63.7335 63.1507 63.8541 63.2056 63.9869C63.2606 64.1196 63.2888 64.2619 63.2887 64.4055V65.9618C63.2871 67.348 62.7357 68.677 61.7554 69.6572C60.7752 70.6374 59.4462 71.1889 58.06 71.1905H55.1075V71.3105C55.1058 72.5505 54.6125 73.7392 53.7356 74.616C52.8587 75.4927 51.67 75.9859 50.43 75.9874ZM9.93311 65.4999V65.9624C9.93377 66.7688 10.2544 67.5419 10.8246 68.1121C11.3948 68.6824 12.168 69.003 12.9744 69.0036H17.02C17.1636 69.0036 17.3059 69.0318 17.4386 69.0867C17.5714 69.1417 17.692 69.2222 17.7936 69.3238C17.8951 69.4254 17.9757 69.546 18.0306 69.6787C18.0856 69.8115 18.1138 69.9537 18.1137 70.0974V71.3124C18.1147 71.9724 18.3774 72.6051 18.8442 73.0718C19.3109 73.5384 19.9437 73.8009 20.6037 73.8018H50.43C51.0901 73.8011 51.7229 73.5386 52.1897 73.072C52.6565 72.6053 52.9192 71.9725 52.92 71.3124V70.0986C52.9199 69.955 52.9481 69.8127 53.0031 69.68C53.058 69.5472 53.1386 69.4266 53.2402 69.3251C53.3417 69.2235 53.4623 69.1429 53.5951 69.088C53.7278 69.033 53.8701 69.0048 54.0137 69.0049H58.0625C58.8688 69.0041 59.6419 68.6834 60.2121 68.1132C60.7822 67.5431 61.1029 66.77 61.1037 65.9636V65.5011L9.93311 65.4999Z" fill="#004D8E"></path><path d="M59.5624 50.8319C59.2905 50.8315 59.0285 50.73 58.8275 50.547C58.6264 50.364 58.5008 50.1127 58.4749 49.842C58.4491 49.5714 58.525 49.3008 58.6878 49.0831C58.8506 48.8654 59.0886 48.7161 59.3555 48.6644C67.3505 47.1156 69.5861 40.8237 70.0543 35.8187C70.086 35.4988 70.0499 35.1759 69.9484 34.8709C69.8468 34.5659 69.6821 34.2857 69.4649 34.0487C69.2531 33.8141 68.9941 33.6268 68.7049 33.4992C68.4157 33.3716 68.1029 33.3065 67.7868 33.3081H59.7043C59.4142 33.3081 59.136 33.1929 58.9309 32.9878C58.7258 32.7826 58.6105 32.5044 58.6105 32.2144C58.6105 31.9243 58.7258 31.6461 58.9309 31.441C59.136 31.2358 59.4142 31.1206 59.7043 31.1206H67.7893C68.4123 31.1214 69.0283 31.2523 69.5977 31.5051C70.1672 31.7578 70.6775 32.1268 71.096 32.5883C71.5146 33.0499 71.832 33.5938 72.028 34.1851C72.224 34.7765 72.2943 35.4024 72.2343 36.0225C71.7968 40.7294 69.5911 48.9106 59.7743 50.8119C59.7045 50.8254 59.6335 50.8321 59.5624 50.8319Z" fill="#F02801"></path><path d="M59.5662 37.1761H11.3293C11.0393 37.1761 10.7611 37.0609 10.5559 36.8558C10.3508 36.6507 10.2356 36.3725 10.2356 36.0824C10.2356 35.7923 10.3508 35.5141 10.5559 35.309C10.7611 35.1039 11.0393 34.9886 11.3293 34.9886H59.5662C59.8563 34.9886 60.1345 35.1039 60.3396 35.309C60.5447 35.5141 60.66 35.7923 60.66 36.0824C60.66 36.3725 60.5447 36.6507 60.3396 36.8558C60.1345 37.0609 59.8563 37.1761 59.5662 37.1761Z" fill="#F02801"></path><path d="M42.0469 65.5H28.9844C24.0134 65.494 19.2477 63.5166 15.7327 60.0016C12.2177 56.4866 10.2403 51.7209 10.2344 46.75V30.1387C10.2352 29.3029 10.5676 28.5015 11.1586 27.9105C11.7497 27.3194 12.551 26.987 13.3869 26.9862H57.645C58.4809 26.9869 59.2825 27.3192 59.8736 27.9102C60.4648 28.5013 60.7973 29.3028 60.7981 30.1387V46.75C60.7922 51.7212 58.8146 56.487 55.2994 60.0021C51.7841 63.5171 47.0181 65.4943 42.0469 65.5ZM13.3881 29.1737C13.1322 29.1739 12.8869 29.2756 12.7059 29.4565C12.525 29.6375 12.4233 29.8828 12.4231 30.1387V46.75C12.4284 51.141 14.1751 55.3506 17.28 58.4556C20.3849 61.5605 24.5946 63.3072 28.9856 63.3125H42.0481C46.4391 63.3072 50.6488 61.5605 53.7537 58.4556C56.8587 55.3506 58.6053 51.141 58.6106 46.75V30.1387C58.6103 29.8828 58.5084 29.6374 58.3274 29.4565C58.1464 29.2756 57.9009 29.1739 57.645 29.1737H13.3881Z" fill="#004D8E"></path></svg>