<?xml version="1.0" encoding="UTF-8"?> <svg xmlns="http://www.w3.org/2000/svg" viewBox="0 0 190.64303 200.6357" fill="#fff"><g id="Слой_2" data-name="Слой 2"><g id="ар_2" data-name="ар 2"><path d="M159.7024,200.6357a2.81429,2.81429,0,0,1-.6961-5.5406l18.9325-4.8486a9.52122,9.52122,0,0,0,6.463-12.561l-14.9899-41.7069c-1.664-3.5592-1.805-6.3481-.431-8.5232,2.084-3.2981,6.758-3.2981,8.5177-3.2981a6.5307,6.5307,0,0,0,6.5212-6.8844l-1.1427-20.5594a9.46558,9.46558,0,0,0-1.5994-4.7817,2.81388,2.81388,0,0,1,4.6653-3.1475,15.087,15.087,0,0,1,2.5539,7.6205l1.1427,20.5598a12.15941,12.15941,0,0,1-12.141,12.8208c-3.2941,0-3.7553.6696-3.7594.676s-.3577.7608.8171,3.2304l.1067.2569,15.0202,41.792a15.14852,15.14852,0,0,1-10.3292,19.953l-18.9517,4.8536A2.81645,2.81645,0,0,1,159.7024,200.6357Z"></path><path d="M144.9457,192.8678a2.8145,2.8145,0,0,1-2.7238-2.1142l-13.2284-51.491c-1.3109-4.1057-2.1193-4.4954-3.9152-4.4954H98.0733c-6.8473,0-10.9355-3.2863-10.9355-8.7907,0-1.0177-.1988-1.0947-.4741-1.2014a16.06185,16.06185,0,0,0-4.4959-.3522H54.8995a14.66869,14.66869,0,0,1-14.6519-14.6523V96.7758A14.66867,14.66867,0,0,1,54.8995,82.1239H173.4209a2.814,2.814,0,1,1,0,5.628H54.8995a9.0339,9.0339,0,0,0-9.0238,9.0239v12.9948a9.03416,9.03416,0,0,0,9.0238,9.0242H82.1642a18.43644,18.43644,0,0,1,6.5368.7338c1.8545.72,4.0648,2.4233,4.0648,6.4479,0,1.0264,0,3.1626,5.3075,3.1626h27.005c6.6078,0,8.2951,5.3176,9.3028,8.4948l.0435.1507,13.2485,51.5683a2.81548,2.81548,0,0,1-2.7274,3.5149Z"></path><path d="M45.8757,113.5881H29.018V93.3865H45.8757Zm-11.2296-5.628h5.6015V99.0145H34.6461Z"></path><path d="M22.2829,121.2805H8.4156A8.42536,8.42536,0,0,1,0,112.8649V94.1097a8.42536,8.42536,0,0,1,8.4156-8.4156H22.2829A12.37709,12.37709,0,0,1,34.6461,98.0568v10.861A12.37709,12.37709,0,0,1,22.2829,121.2805ZM8.4156,91.3222a2.79051,2.79051,0,0,0-2.7875,2.7875v18.7552a2.79051,2.79051,0,0,0,2.7875,2.7875H22.2829a6.74262,6.74262,0,0,0,6.7351-6.7346V98.0568a6.74262,6.74262,0,0,0-6.7351-6.7346Z"></path><path d="M135.1643,155.5185H113.338a16.72861,16.72861,0,0,1-16.575-14.0964l-1.4671-9.0169a2.81395,2.81395,0,1,1,5.5548-.9041l1.467,9.0169a11.12245,11.12245,0,0,0,11.0203,9.3724h21.8263a2.81405,2.81405,0,0,1,0,5.6281Z"></path><path d="M152.681,87.7519H127.0941V75.195a2.81405,2.81405,0,0,1,5.6281,0v6.9289H147.053V75.195a2.814,2.814,0,0,1,5.628,0Z"></path><path d="M146.4974,78.0091H134.5116a32.08272,32.08272,0,0,1-32.083-32.0826V6.0284A6.03493,6.03493,0,0,1,108.457,0h42.7383a2.81405,2.81405,0,0,1,0,5.6281H108.457a.40066.40066,0,0,0-.4003.4003V45.9265A26.454,26.454,0,0,0,134.5116,72.381h11.9858a26.454,26.454,0,0,0,26.4545-26.4545V6.0284a.40064.40064,0,0,0-.3999-.4003h-5.7618a2.81405,2.81405,0,1,1,0-5.6281h5.7618a6.03483,6.03483,0,0,1,6.0279,6.0284V45.9265a32.08272,32.08272,0,0,1-32.0825,32.0826Z"></path><path d="M158.7406,106.3016H65.5955a2.81405,2.81405,0,0,1,0-5.6281h93.1451a2.81405,2.81405,0,1,1,0,5.6281Z"></path></g></g></svg> 