<svg xmlns="http://www.w3.org/2000/svg" viewBox="0 0 147.9465 189.6878" fill="#fff"><g id="&#x421;&#x43B;&#x43E;&#x439;_2" data-name="&#x421;&#x43B;&#x43E;&#x439; 2"><g id="&#x430;&#x440;_2" data-name="&#x430;&#x440; 2"><path d="M142.9828,189.6878H4.9637A4.969,4.969,0,0,1,0,184.7242V4.9637A4.96925,4.96925,0,0,1,4.9637,0H122.5913a2.81405,2.81405,0,0,1,0,5.6281H5.6281V184.0597H142.3184V5.6281h-5.5509a2.81405,2.81405,0,0,1,0-5.6281h6.2153a4.96925,4.96925,0,0,1,4.9637,4.9637V184.7242A4.969,4.969,0,0,1,142.9828,189.6878Zm0-184.0597h0Z"></path><path d="M58.0304,61.0106H18.697a2.81419,2.81419,0,0,1-2.814-2.8141V18.8631a2.81417,2.81417,0,0,1,2.814-2.814H49.5262a2.81405,2.81405,0,1,1,0,5.6281H21.5111V55.3825H55.2164V40.9695a2.81405,2.81405,0,1,1,5.6281,0v17.227A2.81421,2.81421,0,0,1,58.0304,61.0106Z"></path><path d="M38.7304,54.4222a2.81353,2.81353,0,0,1-2.236-1.1058L24.7783,37.9781a2.814,2.814,0,0,1,4.4725-3.4163l9.3896,12.2924L56.7528,21.1773a2.814,2.814,0,1,1,4.5989,3.2441L41.0301,53.2302a2.81384,2.81384,0,0,1-2.2461,1.1916Z"></path><path d="M58.0304,117.5303H18.697a2.81419,2.81419,0,0,1-2.814-2.8141V75.3829a2.81419,2.81419,0,0,1,2.814-2.8141H49.5262a2.81405,2.81405,0,1,1,0,5.6281H21.5111v33.7053H55.2164V97.4889a2.81405,2.81405,0,0,1,5.6281,0v17.2273A2.81421,2.81421,0,0,1,58.0304,117.5303Z"></path><path d="M38.7306,110.9417a2.814,2.814,0,0,1-2.2362-1.1056L24.7783,94.4981a2.81415,2.81415,0,1,1,4.4725-3.4168l9.3896,12.2922L56.7528,77.6969a2.814,2.814,0,0,1,4.5989,3.2442L41.0301,109.75a2.81437,2.81437,0,0,1-2.2461,1.1913Z"></path><path d="M58.0304,174.0498H18.697a2.81419,2.81419,0,0,1-2.814-2.8141V131.9023a2.81417,2.81417,0,0,1,2.814-2.814H49.5262a2.814,2.814,0,1,1,0,5.628H21.5111v33.7054H55.2164V154.0084a2.81405,2.81405,0,1,1,5.6281,0v17.2273A2.81421,2.81421,0,0,1,58.0304,174.0498Z"></path><path d="M38.7306,167.4612a2.814,2.814,0,0,1-2.2362-1.1056l-11.7161-15.338a2.81415,2.81415,0,1,1,4.4725-3.4168l9.3896,12.2922,18.1124-25.6768a2.81413,2.81413,0,1,1,4.5989,3.2446L41.0301,166.2695a2.81437,2.81437,0,0,1-2.2461,1.1913Z"></path><path d="M130.5035,25.6134H74.8213a2.81405,2.81405,0,1,1,0-5.6281h55.6822a2.81405,2.81405,0,0,1,0,5.6281Z"></path><path d="M130.5035,40.0177H87.9102a2.81405,2.81405,0,1,1,0-5.6281h42.5933a2.81405,2.81405,0,0,1,0,5.6281Z"></path><path d="M130.5035,82.133H74.8213a2.814,2.814,0,1,1,0-5.628h55.6822a2.814,2.814,0,0,1,0,5.628Z"></path><path d="M130.5035,96.5376H87.9102a2.81405,2.81405,0,1,1,0-5.6281h42.5933a2.81405,2.81405,0,0,1,0,5.6281Z"></path><path d="M130.5035,138.6525H74.8213a2.81405,2.81405,0,1,1,0-5.6281h55.6822a2.81405,2.81405,0,0,1,0,5.6281Z"></path><path d="M130.5035,153.0571H87.9102a2.81405,2.81405,0,1,1,0-5.6281h42.5933a2.81405,2.81405,0,0,1,0,5.6281Z"></path></g></g></svg>