<?xml version="1.0" encoding="UTF-8"?> <svg xmlns="http://www.w3.org/2000/svg" viewBox="0 0 209.7188 145.7829" fill="#fff"><g id="Слой_2" data-name="Слой 2"><g id="ар_2" data-name="ар 2"><rect x="30.56081" y="51.38948" width="0.37899" height="5.62818" transform="translate(-27.96456 75.08836) rotate(-80.01366)"></rect><path d="M182.2585,130.3969H26.4927a22.46228,22.46228,0,0,1-12.2487-4.108c-4.3543-3.0316-6.7525-6.9407-6.7525-11.0075V79.1652c0-10.7906,7.6141-20.3547,22.0191-27.6582,5.7089-2.8942,11.896-1.7148,17.879-.5746a50.56929,50.56929,0,0,0,9.161,1.1852h95.65a50.57508,50.57508,0,0,0,9.1612-1.1847c5.9831-1.14,12.1699-2.3194,17.88.579,14.4036,7.2966,22.0179,16.8592,22.0179,27.6533v36.1162c0,4.0668-2.3982,7.9759-6.7525,11.0075A22.462,22.462,0,0,1,182.2585,130.3969ZM37.7299,55.3328a12.3429,12.3429,0,0,0-5.6741,1.1941c-8.6387,4.3797-18.9362,11.8626-18.9362,22.6383v36.1162c0,2.1397,1.582,4.4682,4.3402,6.3884a16.88743,16.88743,0,0,0,9.0329,3.099H182.2585a16.88774,16.88774,0,0,0,9.033-3.099c2.7581-1.9202,4.3401-4.2487,4.3401-6.3884V79.1652c0-10.7789-10.2971-18.2579-18.9352-22.6337-3.9985-2.0293-8.9932-1.0778-14.2809-.0699a54.7257,54.7257,0,0,1-10.2149,1.2841h-95.65a54.73658,54.73658,0,0,1-10.2149-1.2846A47.709,47.709,0,0,0,37.7299,55.3328Z"></path><path d="M182.7337,59.5958l-6.0394-3.0655c-3.9962-2.0285-8.9915-1.0766-14.2788-.0687a54.7257,54.7257,0,0,1-10.2149,1.2841h-95.65a54.73658,54.73658,0,0,1-10.2149-1.2846c-5.2884-1.0083-10.2837-1.9605-14.2799.0658L26.0184,59.588,36.4003,27.571c1.5476-8.7275,6.6462-15.9596,14.7563-20.9256A48.66735,48.66735,0,0,1,76.278,0h56.1915a48.67539,48.67539,0,0,1,25.1247,6.6454c8.11,4.9658,13.2089,12.1976,14.7568,20.9256ZM37.6955,49.6983a52.4676,52.4676,0,0,1,9.6941,1.2341,50.56929,50.56929,0,0,0,9.161,1.1852h95.65a50.59219,50.59219,0,0,0,9.1612-1.1845c4.0752-.7772,8.245-1.5723,12.2956-1.0834l-6.7845-20.9263-.0341-.2008c-1.9603-11.4954-13.3477-23.0945-34.3693-23.0945H76.278c-21.0192,0-32.4054,11.5991-34.3655,23.0943l-.0342.201-6.785,20.9242A21.78721,21.78721,0,0,1,37.6955,49.6983Z"></path><path d="M38.3764,145.7829H20.0993A11.24154,11.24154,0,0,1,8.8704,134.554a2.814,2.814,0,1,1,5.628,0,5.60717,5.60717,0,0,0,5.6009,5.6009H38.3764a4.69214,4.69214,0,0,0,4.6868-4.6869v-6.2446a2.81405,2.81405,0,0,1,5.6281,0v6.2446A10.32665,10.32665,0,0,1,38.3764,145.7829Z"></path><path d="M189.1665,145.7829H170.8894a10.32665,10.32665,0,0,1-10.3149-10.3149v-6.2446a2.81405,2.81405,0,0,1,5.6281,0v6.2446a4.69214,4.69214,0,0,0,4.6868,4.6869h18.2771a5.60709,5.60709,0,0,0,5.6008-5.6009,2.81405,2.81405,0,0,1,5.6281,0A11.24154,11.24154,0,0,1,189.1665,145.7829Z"></path><path d="M19.5444,61.674H12.1891C5.0123,61.674,0,56.8342,0,49.9044S5.0123,38.1348,12.1891,38.1348h9.2357a2.81405,2.81405,0,0,1,0,5.6281H12.1891c-4.1084,0-6.561,2.2958-6.561,6.1415s2.4526,6.1415,6.561,6.1415h7.3553c.9465-.076,4.8281-1.7603,8.269-3.6038a2.81416,2.81416,0,0,1,2.6579,4.9612C27.4939,58.9983,22.1153,61.674,19.5444,61.674Z"></path><path d="M197.5297,61.674h-7.3553c-2.5154,0-8.3728-2.6416-11.6402-4.2162a2.81415,2.81415,0,0,1,2.4433-5.0703c3.5365,1.7037,8.0894,3.5806,9.2301,3.6591l7.3221-.0007c4.1083,0,6.561-2.2958,6.561-6.1415s-2.4527-6.1415-6.561-6.1415H188.294a2.81405,2.81405,0,0,1,0-5.6281h9.2357c7.1768,0,12.1891,4.8399,12.1891,11.7696S204.7065,61.674,197.5297,61.674Z"></path><path d="M41.7732,98.9084H31.6229a2.81405,2.81405,0,0,1,0-5.6281H41.7732c8.3267,0,8.3267-2.1733,8.3267-3.2178,0-4.615-.8695-9.1207-11.2612-9.1207H24.583a2.81405,2.81405,0,0,1,0-5.6281H38.8387c6.59,0,11.3272,1.735,14.0808,5.1568,2.5175,3.1285,2.8085,6.9726,2.8085,9.592C55.728,98.9084,45.2248,98.9084,41.7732,98.9084Z"></path><path d="M178.094,98.9084H167.9437c-3.4516,0-13.9548,0-13.9548-8.8459,0-2.6194.2911-6.4635,2.8088-9.592,2.7536-3.4218,7.4908-5.1568,14.0808-5.1568h14.2557a2.81405,2.81405,0,0,1,0,5.6281H170.8785c-10.392,0-11.2615,4.5057-11.2615,9.1207,0,1.0445,0,3.2178,8.3267,3.2178H178.094a2.81405,2.81405,0,0,1,0,5.6281Z"></path><path d="M142.1238,117.2809a2.814,2.814,0,0,1-2.814-2.814v-1.7444a4.91528,4.91528,0,0,0-4.9097-4.9097l-60.049-.0002a4.91524,4.91524,0,0,0-4.9096,4.9099v1.7441a2.81405,2.81405,0,1,1-5.6281,0v-1.7441a10.54977,10.54977,0,0,1,10.5377-10.538l60.049.0002a10.54969,10.54969,0,0,1,10.5378,10.5378v1.7444A2.814,2.814,0,0,1,142.1238,117.2809Z"></path></g></g></svg> 