<svg xmlns="http://www.w3.org/2000/svg" width="80" height="80" viewBox="0 0 80 80" fill="none"><path d="M35.8306 26.5056H37.0069C37.2265 26.5058 37.4371 26.5931 37.5925 26.7483C37.7479 26.9036 37.8353 27.1141 37.8356 27.3337C37.8356 27.6238 37.9509 27.902 38.156 28.1071C38.3611 28.3123 38.6393 28.4275 38.9294 28.4275C39.2195 28.4275 39.4977 28.3123 39.7028 28.1071C39.9079 27.902 40.0231 27.6238 40.0231 27.3337C40.0221 26.5341 39.704 25.7676 39.1386 25.2022C38.5731 24.6369 37.8065 24.3189 37.0069 24.3181H35.8306C35.0307 24.3184 34.2636 24.6362 33.6977 25.2016C33.1319 25.767 32.8135 26.5338 32.8125 27.3337V27.4375C32.815 28.0911 33.0288 28.7264 33.4219 29.2485C33.815 29.7707 34.3663 30.1518 34.9938 30.335L37.2344 30.9806C37.4068 31.0311 37.5583 31.136 37.6663 31.2796C37.7743 31.4232 37.833 31.5978 37.8338 31.7775V31.875C37.8334 32.0947 37.746 32.3053 37.5906 32.4606C37.4353 32.616 37.2247 32.7034 37.005 32.7037H35.8306C35.6106 32.7039 35.3995 32.6167 35.2438 32.4613C35.088 32.3059 35.0003 32.095 35 31.875C35 31.5849 34.8848 31.3067 34.6796 31.1016C34.4745 30.8965 34.1963 30.7812 33.9062 30.7812C33.6162 30.7812 33.338 30.8965 33.1329 31.1016C32.9277 31.3067 32.8125 31.5849 32.8125 31.875C32.8133 32.6747 33.1314 33.4414 33.6969 34.0069C34.2623 34.5724 35.029 34.8904 35.8288 34.8912H37.005C37.805 34.8909 38.5722 34.5731 39.1381 34.0075C39.704 33.442 40.0223 32.675 40.0231 31.875V31.7756C40.0208 31.1218 39.8071 30.4863 39.414 29.9639C39.0209 29.4415 38.4694 29.0602 37.8419 28.8769L35.6013 28.2312C35.4289 28.1814 35.2772 28.0772 35.1689 27.9342C35.0605 27.7911 35.0013 27.6169 35 27.4375V27.3369C34.9998 27.2277 35.0211 27.1195 35.0627 27.0186C35.1044 26.9177 35.1655 26.826 35.2427 26.7488C35.3199 26.6715 35.4115 26.6103 35.5124 26.5686C35.6133 26.5268 35.7214 26.5055 35.8306 26.5056Z" fill="#F02801"></path><path d="M36.4187 22.9375C36.1286 22.9375 35.8504 23.0527 35.6453 23.2579C35.4402 23.463 35.325 23.7412 35.325 24.0312V25.4106C35.325 25.7007 35.4402 25.9789 35.6453 26.184C35.8504 26.3891 36.1286 26.5044 36.4187 26.5044C36.7088 26.5044 36.987 26.3891 37.1921 26.184C37.3972 25.9789 37.5125 25.7007 37.5125 25.4106V24.0325C37.5126 23.8888 37.4844 23.7464 37.4296 23.6136C37.3747 23.4807 37.2941 23.36 37.1925 23.2583C37.091 23.1566 36.9703 23.0759 36.8376 23.0209C36.7048 22.9658 36.5624 22.9375 36.4187 22.9375Z" fill="#F02801"></path><path d="M36.4187 32.7025C36.1286 32.7025 35.8504 32.8177 35.6453 33.0229C35.4402 33.228 35.325 33.5062 35.325 33.7963V35.1756C35.325 35.4657 35.4402 35.7439 35.6453 35.949C35.8504 36.1542 36.1286 36.2694 36.4187 36.2694C36.7088 36.2694 36.987 36.1542 37.1921 35.949C37.3972 35.7439 37.5125 35.4657 37.5125 35.1756V33.7963C37.5125 33.5062 37.3972 33.228 37.1921 33.0229C36.987 32.8177 36.7088 32.7025 36.4187 32.7025Z" fill="#F02801"></path><path d="M50.525 10.7812H22.3125C21.0531 10.7826 19.8457 11.2834 18.9552 12.174C18.0647 13.0645 17.5638 14.2719 17.5625 15.5312V59.0812C17.563 60.3414 18.0634 61.55 18.9539 62.4417C19.8444 63.3334 21.0523 63.8353 22.3125 63.8375H50.525C51.7852 63.8353 52.9931 63.3334 53.8836 62.4417C54.7741 61.55 55.2745 60.3414 55.275 59.0812V15.5312C55.2737 14.2719 54.7728 13.0645 53.8823 12.174C52.9918 11.2834 51.7844 10.7826 50.525 10.7812ZM53.0875 59.0812C53.0875 59.7614 52.8177 60.4139 52.3373 60.8954C51.857 61.377 51.2052 61.6483 50.525 61.65H22.3125C21.6323 61.6483 20.9805 61.377 20.5002 60.8954C20.0198 60.4139 19.75 59.7614 19.75 59.0812V15.5312C19.75 14.8516 20.02 14.1999 20.5005 13.7193C20.9811 13.2387 21.6329 12.9688 22.3125 12.9688H50.525C51.2046 12.9688 51.8564 13.2387 52.337 13.7193C52.8175 14.1999 53.0875 14.8516 53.0875 15.5312V59.0812Z" fill="#004D8E"></path><path d="M55.9126 16.1625H54.1814C53.8913 16.1626 53.6132 16.2779 53.4081 16.483C53.2031 16.6881 53.0878 16.9662 53.0876 17.2562V59.0812C53.0876 59.7614 52.8178 60.4138 52.3374 60.8954C51.8571 61.377 51.2053 61.6483 50.5251 61.65H24.0376C23.7475 61.65 23.4693 61.7652 23.2642 61.9703C23.0591 62.1754 22.9438 62.4536 22.9438 62.7437V64.4687C22.9452 65.7281 23.446 66.9355 24.3366 67.826C25.2271 68.7165 26.4345 69.2174 27.6938 69.2187H55.9126C57.172 69.2174 58.3794 68.7165 59.2699 67.826C60.1604 66.9355 60.6613 65.7281 60.6626 64.4687V20.9187C60.6621 19.6585 60.1617 18.45 59.2712 17.5583C58.3807 16.6666 57.1728 16.1646 55.9126 16.1625ZM58.4751 64.4687C58.4751 65.1483 58.2051 65.8001 57.7246 66.2807C57.244 66.7612 56.5922 67.0312 55.9126 67.0312H27.6938C27.0142 67.0312 26.3624 66.7612 25.8819 66.2807C25.4013 65.8001 25.1313 65.1483 25.1313 64.4687V63.8375H50.5251C51.7853 63.8353 52.9932 63.3333 53.8837 62.4417C54.7742 61.55 55.2746 60.3414 55.2751 59.0812V18.35H55.9126C56.5928 18.3516 57.2446 18.623 57.7249 19.1046C58.2053 19.5861 58.4751 20.2385 58.4751 20.9187V64.4687Z" fill="#004D8E"></path><path d="M47.4899 47.3788H25.3474C25.0573 47.3788 24.7791 47.494 24.574 47.6991C24.3689 47.9043 24.2537 48.1825 24.2537 48.4725C24.2537 48.7626 24.3689 49.0408 24.574 49.2459C24.7791 49.451 25.0573 49.5663 25.3474 49.5663H47.4899C47.78 49.5663 48.0582 49.451 48.2633 49.2459C48.4684 49.0408 48.5837 48.7626 48.5837 48.4725C48.5837 48.1825 48.4684 47.9043 48.2633 47.6991C48.0582 47.494 47.78 47.3788 47.4899 47.3788Z" fill="#F02801"></path><path d="M47.4899 53.9531H25.3474C25.0573 53.9531 24.7791 54.0684 24.574 54.2735C24.3689 54.4786 24.2537 54.7568 24.2537 55.0469C24.2537 55.337 24.3689 55.6152 24.574 55.8203C24.7791 56.0254 25.0573 56.1406 25.3474 56.1406H47.4899C47.78 56.1406 48.0582 56.0254 48.2633 55.8203C48.4684 55.6152 48.5837 55.337 48.5837 55.0469C48.5837 54.7568 48.4684 54.4786 48.2633 54.2735C48.0582 54.0684 47.78 53.9531 47.4899 53.9531Z" fill="#F02801"></path><path d="M36.4187 18.9375C34.3039 18.9374 32.2365 19.5644 30.478 20.7393C28.7196 21.9141 27.349 23.584 26.5396 25.5379C25.7303 27.4917 25.5185 29.6417 25.931 31.7159C26.3436 33.7901 27.3619 35.6953 28.8574 37.1907C30.3528 38.6862 32.258 39.7045 34.3322 40.1171C36.4064 40.5296 38.5564 40.3178 40.5102 39.5085C42.464 38.6991 44.134 37.3285 45.3088 35.57C46.4837 33.8116 47.1107 31.7442 47.1106 29.6294C47.1073 26.7947 45.9798 24.0771 43.9754 22.0727C41.971 20.0683 39.2534 18.9408 36.4187 18.9375ZM36.4187 38.1344C34.7366 38.1345 33.0921 37.6358 31.6934 36.7013C30.2947 35.7669 29.2045 34.4386 28.5607 32.8845C27.9169 31.3305 27.7483 29.6204 28.0764 27.9705C28.4045 26.3207 29.2145 24.8052 30.4039 23.6157C31.5933 22.4261 33.1088 21.6161 34.7586 21.2878C36.4084 20.9596 38.1185 21.128 39.6727 21.7717C41.2268 22.4154 42.5551 23.5055 43.4897 24.9042C44.4243 26.3028 44.9231 27.9472 44.9231 29.6294C44.9206 31.8842 44.0238 34.0459 42.4295 35.6404C40.8352 37.2348 38.6735 38.1317 36.4187 38.1344Z" fill="#F02801"></path></svg>