<?xml version="1.0" encoding="UTF-8"?> <svg xmlns="http://www.w3.org/2000/svg" viewBox="0 0 170.3652 194.333" fill="#fff"><g id="Слой_2" data-name="Слой 2"><g id="ар_2" data-name="ар 2"><path d="M62.5149,194.333H38.1968A38.2403,38.2403,0,0,1,0,156.1359L.0002,38.1966A38.23983,38.23983,0,0,1,38.1968,0H62.5151a38.23983,38.23983,0,0,1,38.1966,38.1966l-.0002,117.9393A38.24026,38.24026,0,0,1,62.5149,194.333ZM38.1968,5.6281A32.60543,32.60543,0,0,0,5.6283,38.1966L5.6281,156.1359a32.60564,32.60564,0,0,0,32.5687,32.569H62.5149a32.6056,32.6056,0,0,0,32.5685-32.569l.0002-117.9393h0A32.60543,32.60543,0,0,0,62.5151,5.6281Z"></path><path d="M148.9959,111.1483H120.5545a2.81417,2.81417,0,0,1-2.814-2.814V89.197a2.81417,2.81417,0,0,1,2.814-2.814h28.4414a2.81417,2.81417,0,0,1,2.814,2.814v19.1373A2.81417,2.81417,0,0,1,148.9959,111.1483Zm-25.6273-5.6281h22.8132V92.0111H123.3686Z"></path><path d="M112.9059,135.2573H97.8977a2.81408,2.81408,0,0,1-2.8141-2.8141V65.088a2.81406,2.81406,0,0,1,2.8141-2.814h15.0082a2.81405,2.81405,0,0,1,0,5.6281H100.7117v61.7271h12.1942a4.83989,4.83989,0,0,0,4.8346-4.8343V72.7364a2.81405,2.81405,0,0,1,5.6281,0v52.0585A10.47436,10.47436,0,0,1,112.9059,135.2573Z"></path><path d="M167.5512,135.2573H156.6447a10.47453,10.47453,0,0,1-10.4629-10.4624V72.7364A10.47453,10.47453,0,0,1,156.6447,62.274h10.9065a2.81405,2.81405,0,0,1,0,5.6281H156.6447a4.84013,4.84013,0,0,0-4.8348,4.8343v52.0585a4.84013,4.84013,0,0,0,4.8348,4.8343h10.9065a2.81405,2.81405,0,0,1,0,5.6281Z"></path><path d="M26.5635,56.11a2.814,2.814,0,0,1-2.814-2.814V4.773a2.814,2.814,0,1,1,5.628,0V53.296A2.814,2.814,0,0,1,26.5635,56.11Z"></path><path d="M73.2663,190.923a2.814,2.814,0,0,1-2.814-2.814V139.586a2.81405,2.81405,0,1,1,5.6281,0v48.523A2.81406,2.81406,0,0,1,73.2663,190.923Z"></path><path d="M73.2663,116.2726a2.81419,2.81419,0,0,1-2.814-2.8141V81.8848a2.81405,2.81405,0,0,1,5.6281,0v31.5737A2.81421,2.81421,0,0,1,73.2663,116.2726Z"></path><path d="M26.5635,191.8936a2.81412,2.81412,0,0,1-2.814-2.8141V167.949a2.814,2.814,0,1,1,5.628,0v21.1305A2.81419,2.81419,0,0,1,26.5635,191.8936Z"></path><path d="M26.5635,133.6863a2.8141,2.8141,0,0,1-2.814-2.814V109.7422a2.814,2.814,0,0,1,5.628,0v21.1301A2.81417,2.81417,0,0,1,26.5635,133.6863Z"></path></g></g></svg> 