<svg xmlns="http://www.w3.org/2000/svg" width="80" height="80" viewBox="0 0 80 80" fill="none"><path d="M40 59.9062C38.5094 59.9062 37.2537 59.0356 36.1462 58.2675C35.8912 58.0906 35.6381 57.915 35.3837 57.7519C35.0061 57.4917 34.5929 57.2873 34.1569 57.145C33.3667 57.0071 32.5596 56.9951 31.7656 57.1094C30.4481 57.2137 28.9531 57.335 27.7137 56.6144C26.45 55.8838 25.8069 54.5181 25.2394 53.3125C25.035 52.8567 24.8076 52.4115 24.5581 51.9788C24.4151 51.7322 24.243 51.5037 24.0456 51.2981C23.4393 50.7961 22.7576 50.3928 22.0256 50.1031C20.8206 49.535 19.4544 48.8913 18.7269 47.6263C18.0081 46.3875 18.1287 44.895 18.235 43.5775C18.3491 42.7818 18.3369 41.9731 18.1987 41.1812C17.9293 40.4647 17.5497 39.7946 17.0738 39.195C16.3081 38.0894 15.4375 36.8369 15.4375 35.3438C15.4375 33.8506 16.3069 32.6 17.0731 31.495C17.5501 30.8911 17.9297 30.2162 18.1981 29.495C18.3349 28.7059 18.3467 27.9002 18.2331 27.1075C18.1269 25.7913 18.0062 24.2981 18.7275 23.0556C19.4525 21.795 20.8187 21.1506 22.0237 20.5825C22.7565 20.2925 23.4389 19.8886 24.0456 19.3856C24.5465 18.7794 24.9493 18.0984 25.2394 17.3675C25.8069 16.1619 26.4506 14.7963 27.715 14.0688C28.955 13.3494 30.4481 13.47 31.7637 13.5769C32.5569 13.691 33.3631 13.6789 34.1525 13.5413C34.8738 13.273 35.5487 12.8934 36.1525 12.4162C37.2563 11.6506 38.5087 10.7812 40 10.7812C41.4912 10.7812 42.7437 11.6506 43.8481 12.4175C44.452 12.8946 45.1268 13.2741 45.8481 13.5425C46.6371 13.6799 47.4429 13.6917 48.2356 13.5775C49.5519 13.4706 51.0481 13.35 52.2875 14.0712C53.5488 14.7969 54.1925 16.1625 54.76 17.3681C55.0505 18.1006 55.4546 18.7827 55.9575 19.3894C56.5632 19.891 57.2443 20.2939 57.9756 20.5831C59.1813 21.1512 60.5469 21.7956 61.2744 23.06C61.9931 24.2987 61.8725 25.7919 61.7662 27.1081C61.6525 27.9015 61.6645 28.7079 61.8019 29.4975C62.0707 30.2174 62.4502 30.891 62.9269 31.4937C63.6931 32.5987 64.5625 33.8512 64.5625 35.3425C64.5625 36.8337 63.6919 38.0881 62.9237 39.1937C62.4475 39.7945 62.0679 40.4659 61.7987 41.1837C61.6616 41.9745 61.6498 42.7819 61.7637 43.5762C61.87 44.8925 61.9906 46.3837 61.2712 47.6256C60.5444 48.89 59.1781 49.5338 57.9731 50.1019C57.2403 50.3918 56.558 50.7958 55.9513 51.2988C55.754 51.5049 55.5812 51.733 55.4362 51.9788C55.1893 52.4094 54.9642 52.8523 54.7619 53.3056C54.1938 54.5163 53.5494 55.8875 52.2806 56.6181C51.0406 57.3369 49.5475 57.2162 48.2331 57.1106C47.44 56.9958 46.6338 57.0076 45.8444 57.1456C45.4076 57.2879 44.9936 57.4923 44.615 57.7525C44.3606 57.9162 44.1075 58.0919 43.8525 58.2688C42.7463 59.0356 41.4906 59.9062 40 59.9062ZM33.125 54.8438C33.6624 54.8363 34.1984 54.8994 34.7194 55.0312C35.3761 55.2281 35.9986 55.5249 36.565 55.9113C36.84 56.0881 37.1156 56.2781 37.3919 56.47C38.3187 57.1119 39.1931 57.72 39.9994 57.72C40.8056 57.72 41.68 57.1131 42.6069 56.47C42.8831 56.2781 43.1588 56.0881 43.4338 55.9113C44.001 55.5245 44.6243 55.2273 45.2819 55.03C46.3103 54.8192 47.367 54.785 48.4069 54.9287C49.5006 55.0163 50.5319 55.1006 51.185 54.7225C51.8594 54.3356 52.3062 53.3844 52.7794 52.3769C53.015 51.8521 53.2774 51.3397 53.5656 50.8419C53.8022 50.4458 54.085 50.0793 54.4081 49.75C55.1865 49.0615 56.0774 48.5119 57.0419 48.125C58.0419 47.6519 58.9919 47.2056 59.3763 46.5369V46.5331C59.7513 45.8819 59.6706 44.8456 59.5825 43.7537C59.439 42.7104 59.4745 41.6502 59.6875 40.6187C60.011 39.6528 60.4972 38.7491 61.125 37.9469C61.7663 37.0238 62.375 36.1512 62.375 35.3438C62.375 34.5362 61.77 33.665 61.1294 32.7425C60.4999 31.9388 60.0122 31.0335 59.6875 30.0656C59.4746 29.0352 59.4397 27.9759 59.5844 26.9338C59.6725 25.8394 59.7556 24.8087 59.3781 24.155C58.9912 23.4825 58.0437 23.0356 57.0412 22.5631C56.0776 22.1757 55.1874 21.6261 54.4094 20.9381C53.7193 20.1593 53.168 19.2678 52.7794 18.3025C52.3069 17.2994 51.8606 16.3525 51.1912 15.9675C50.5362 15.5875 49.5037 15.6712 48.41 15.7594C47.3683 15.9043 46.3094 15.8696 45.2794 15.6569C44.3109 15.3323 43.4049 14.8446 42.6006 14.215C41.6788 13.5737 40.8062 12.9688 40 12.9688C39.1938 12.9688 38.3213 13.5738 37.3988 14.2144C36.5949 14.8436 35.6896 15.3312 34.7219 15.6562C33.6912 15.8687 32.6318 15.9034 31.5894 15.7588C30.4962 15.67 29.4644 15.5862 28.8112 15.9644C28.1387 16.3519 27.6925 17.2988 27.22 18.3019C26.8324 19.2656 26.2828 20.1559 25.595 20.9344C24.8155 21.6238 23.9237 22.1744 22.9581 22.5625C21.9581 23.035 21.0081 23.4819 20.6238 24.1506C20.2438 24.8056 20.3269 25.8381 20.415 26.9331C20.5595 27.9745 20.5249 29.0329 20.3125 30.0625C19.9879 31.031 19.5003 31.937 18.8706 32.7413C18.23 33.665 17.625 34.5369 17.625 35.3438C17.625 36.1506 18.2313 37.0238 18.875 37.9469C19.5024 38.7478 19.9886 39.6499 20.3125 40.6144C20.5254 41.6471 20.5603 42.7086 20.4156 43.7531C20.3275 44.8475 20.2444 45.8813 20.6219 46.5325C21.0087 47.205 21.9563 47.6512 22.9588 48.1244C23.9226 48.5115 24.8128 49.0611 25.5906 49.7494C25.9141 50.0793 26.1962 50.4474 26.4306 50.8456C26.7197 51.3432 26.9829 51.8554 27.2194 52.38C27.6919 53.3844 28.1387 54.3325 28.8106 54.7213C29.4637 55.1 30.4981 55.0156 31.59 54.9281C32.0962 54.8875 32.6125 54.8462 33.125 54.8462V54.8438Z" fill="#004D8E"></path><path d="M40.0001 50.7431C36.9542 50.7431 33.9768 49.8399 31.4443 48.1477C28.9117 46.4555 26.9379 44.0503 25.7723 41.2363C24.6067 38.4223 24.3018 35.3258 24.8961 32.3385C25.4903 29.3512 26.9571 26.6072 29.1109 24.4535C31.2647 22.2998 34.0087 20.8331 36.9961 20.239C39.9834 19.6448 43.0799 19.9499 45.8939 21.1156C48.7078 22.2812 51.1129 24.2552 52.805 26.7878C54.4971 29.3204 55.4002 32.2979 55.4001 35.3437C55.3953 39.4265 53.7713 43.3407 50.8842 46.2277C47.9972 49.1146 44.0829 50.7385 40.0001 50.7431ZM40.0001 22.1312C37.3869 22.1312 34.8324 22.9061 32.6596 24.358C30.4868 25.8098 28.7934 27.8733 27.7933 30.2875C26.7933 32.7018 26.5317 35.3584 27.0415 37.9214C27.5513 40.4844 28.8097 42.8386 30.6575 44.6864C32.5053 46.5342 34.8595 47.7926 37.4225 48.3024C39.9854 48.8122 42.642 48.5505 45.0563 47.5505C47.4706 46.5505 49.5341 44.857 50.9859 42.6842C52.4377 40.5114 53.2126 37.9569 53.2126 35.3437C53.2086 31.8408 51.8153 28.4824 49.3384 26.0055C46.8614 23.5285 43.5031 22.1352 40.0001 22.1312Z" fill="#F02801"></path><path d="M38.5995 41.2263C38.4557 41.2264 38.3134 41.1982 38.1806 41.1432C38.0478 41.0882 37.9272 41.0074 37.8257 40.9056L32.1045 35.1875C31.9053 34.9812 31.7951 34.7049 31.7977 34.4181C31.8002 34.1313 31.9153 33.857 32.1181 33.6543C32.3209 33.4515 32.5953 33.3366 32.8821 33.3341C33.1689 33.3317 33.4451 33.442 33.6514 33.6413L38.5995 38.5888L45.9226 31.2631C46.1281 31.0581 46.4066 30.9431 46.6968 30.9434C46.9871 30.9437 47.2654 31.0592 47.4704 31.2647C47.6755 31.4702 47.7905 31.7487 47.7902 32.0389C47.7899 32.3292 47.6743 32.6075 47.4689 32.8125L39.3751 40.9056C39.2734 41.0077 39.1525 41.0886 39.0194 41.1436C38.8863 41.1987 38.7435 41.2268 38.5995 41.2263Z" fill="#F02801"></path><path d="M49.2875 69.2187C49.2333 69.2189 49.1791 69.2147 49.1256 69.2062C48.9469 69.1795 48.7777 69.109 48.6329 69.0009C48.4882 68.8928 48.3725 68.7506 48.2962 68.5868L43.0337 57.2931C42.9219 57.0533 42.901 56.7811 42.9746 56.5269C43.0483 56.2728 43.2116 56.054 43.4343 55.9112C44.0016 55.5245 44.6249 55.2272 45.2825 55.03C46.3109 54.8192 47.3676 54.7849 48.4075 54.9287C49.5012 55.0162 50.5325 55.1006 51.1856 54.7225C51.86 54.3356 52.3068 53.3843 52.78 52.3768C53.0154 51.852 53.2779 51.3396 53.5662 50.8418C53.6686 50.6719 53.8152 50.533 53.9904 50.44C54.1656 50.347 54.3628 50.3034 54.5609 50.3139C54.7589 50.3244 54.9504 50.3885 55.1149 50.4994C55.2793 50.6104 55.4105 50.7639 55.4943 50.9437L60.9693 62.675C61.0457 62.8386 61.0804 63.0187 61.0702 63.199C61.0601 63.3793 61.0055 63.5543 60.9112 63.7084C60.8169 63.8625 60.686 63.9908 60.53 64.0819C60.3741 64.173 60.198 64.2241 60.0175 64.2306L54.0737 64.445L50.0968 68.8575C49.9945 68.9707 49.8697 69.0614 49.7303 69.1236C49.5909 69.1858 49.4401 69.2182 49.2875 69.2187ZM45.445 57.2893L49.5812 66.1643L52.7625 62.635C52.8606 62.5263 52.9795 62.4384 53.1122 62.3764C53.2449 62.3145 53.3886 62.2798 53.535 62.2743L58.2918 62.1031L54.4712 53.9156C54.0298 55.0144 53.2675 55.9546 52.2837 56.6137C51.0437 57.3325 49.5506 57.2118 48.2362 57.1062C47.4431 56.9914 46.6368 57.0032 45.8475 57.1412C45.7095 57.1794 45.5748 57.229 45.445 57.2893Z" fill="#004D8E"></path><path d="M30.7125 69.2187C30.5594 69.2187 30.4079 69.1866 30.2679 69.1244C30.1279 69.0621 30.0026 68.9712 29.9 68.8574L25.9232 64.4449L19.9857 64.2305C19.8052 64.2241 19.6291 64.173 19.4731 64.0819C19.3172 63.9907 19.1862 63.8624 19.0919 63.7084C18.9977 63.5543 18.943 63.3793 18.9329 63.1989C18.9227 63.0186 18.9574 62.8386 19.0338 62.6749L24.5 50.9499C24.5837 50.7702 24.7146 50.6166 24.8788 50.5056C25.0431 50.3945 25.2344 50.3302 25.4323 50.3196C25.6303 50.3089 25.8274 50.3523 26.0026 50.445C26.1778 50.5378 26.3245 50.6764 26.4269 50.8462C26.7164 51.3436 26.9799 51.8558 27.2163 52.3805C27.6888 53.3849 28.1357 54.333 28.8075 54.7218C29.4607 55.1005 30.495 55.0162 31.5869 54.9287C32.6287 54.7844 33.6874 54.819 34.7175 55.0312C35.3743 55.228 35.9968 55.5248 36.5632 55.9112C36.7859 56.054 36.9492 56.2728 37.0229 56.5269C37.0965 56.781 37.0756 57.0532 36.9638 57.293L31.7013 68.5868C31.625 68.7505 31.5093 68.8928 31.3646 69.0009C31.2198 69.1089 31.0506 69.1795 30.8719 69.2062C30.8192 69.2145 30.7659 69.2187 30.7125 69.2187ZM21.7125 62.1043L26.4625 62.2755C26.6089 62.281 26.7526 62.3157 26.8853 62.3776C27.018 62.4396 27.1369 62.5275 27.235 62.6362L30.4163 66.1655L34.5525 57.2905C34.4239 57.232 34.2908 57.184 34.1544 57.1468C33.3642 57.0085 32.5571 56.9965 31.7632 57.1112C30.4457 57.2155 28.9544 57.3368 27.7113 56.6162C26.7312 55.9564 25.9709 55.0185 25.5282 53.923L21.7125 62.1043Z" fill="#004D8E"></path></svg>