<svg xmlns="http://www.w3.org/2000/svg" width="80" height="80" viewBox="0 0 80 80" fill="none"><path d="M39.9999 69.2188C39.7651 69.219 39.5364 69.1434 39.348 69.0032C38.4155 68.3113 16.5193 51.8513 16.5193 34.3219C16.5193 28.0945 18.9931 22.1221 23.3966 17.7186C27.8001 13.3152 33.7725 10.8413 39.9999 10.8413C46.2274 10.8413 52.1997 13.3152 56.6032 17.7186C61.0067 22.1221 63.4805 28.0945 63.4805 34.3219C63.4805 52.3763 41.5712 68.3419 40.6387 69.0132C40.4525 69.1468 40.2291 69.2187 39.9999 69.2188ZM39.9999 13.0313C34.355 13.0376 28.943 15.2826 24.9512 19.274C20.9594 23.2653 18.7137 28.677 18.7068 34.3219C18.7068 49.1407 36.3868 63.8844 40.0093 66.7488C43.6455 63.9526 61.293 49.5851 61.293 34.3219C61.2868 28.6766 59.0414 23.2642 55.0495 19.2724C51.0576 15.2805 45.6453 13.0351 39.9999 13.0288V13.0313Z" fill="#004D8E"></path><path d="M26.8399 34.8976C26.6134 34.8979 26.3924 34.8279 26.2074 34.6973C26.0224 34.5666 25.8826 34.3818 25.8071 34.1683C25.7317 33.9547 25.7244 33.7231 25.7862 33.5052C25.848 33.2873 25.976 33.094 26.1524 32.952L39.3124 22.3501C39.5383 22.1678 39.8274 22.0827 40.1161 22.1135C40.4048 22.1443 40.6694 22.2886 40.8518 22.5145C41.0341 22.7404 41.1192 23.0295 41.0884 23.3182C41.0576 23.6069 40.9133 23.8715 40.6874 24.0539L27.5255 34.6557C27.3313 34.8124 27.0893 34.8977 26.8399 34.8976Z" fill="#F02801"></path><path d="M53.1643 34.8976C52.9142 34.8981 52.6716 34.8127 52.4768 34.6557L39.3125 24.0539C39.2006 23.9636 39.1076 23.8521 39.0388 23.7259C38.97 23.5997 38.9267 23.4612 38.9115 23.3182C38.8962 23.1753 38.9092 23.0307 38.9498 22.8928C38.9904 22.7549 39.0578 22.6264 39.1481 22.5145C39.2384 22.4026 39.3498 22.3096 39.476 22.2408C39.6023 22.172 39.7408 22.1288 39.8837 22.1135C40.0267 22.0982 40.1712 22.1113 40.3091 22.1519C40.447 22.1925 40.5756 22.2598 40.6875 22.3501L53.8562 32.952C54.0326 33.094 54.1605 33.2873 54.2224 33.5052C54.2842 33.7231 54.2769 33.9547 54.2015 34.1683C54.126 34.3818 53.9861 34.5666 53.8012 34.6973C53.6162 34.8279 53.3952 34.8979 53.1687 34.8976H53.1643Z" fill="#F02801"></path><path d="M48.3319 45.5001H31.6613C30.9719 45.4986 30.3113 45.2239 29.8242 44.7362C29.3371 44.2485 29.0632 43.5875 29.0625 42.8982V31.1332C29.0626 30.9698 29.0993 30.8085 29.1698 30.6611C29.2403 30.5137 29.3429 30.384 29.47 30.2813L39.3125 22.3501C39.5073 22.1931 39.7499 22.1075 40 22.1075C40.2501 22.1075 40.4927 22.1931 40.6875 22.3501L50.5263 30.2813C50.6534 30.384 50.756 30.5137 50.8265 30.6611C50.897 30.8085 50.9336 30.9698 50.9338 31.1332V42.8982C50.9331 43.5881 50.6587 44.2495 50.1709 44.7373C49.6831 45.2251 49.0217 45.4994 48.3319 45.5001ZM31.25 31.6563V42.8982C31.2502 43.0079 31.2938 43.113 31.3714 43.1906C31.4489 43.2682 31.5541 43.3118 31.6637 43.312H48.3319C48.4416 43.3118 48.5468 43.2682 48.6245 43.1906C48.7021 43.1131 48.7459 43.008 48.7463 42.8982V31.6563L40 24.607L31.25 31.6563Z" fill="#F02801"></path><path d="M43.1412 45.5076H36.8674C36.5774 45.5076 36.2992 45.3924 36.094 45.1873C35.8889 44.9822 35.7737 44.704 35.7737 44.4139V33.2645C35.7737 32.9744 35.8889 32.6962 36.094 32.4911C36.2992 32.286 36.5774 32.1708 36.8674 32.1708H43.1412C43.4312 32.1709 43.7093 32.2862 43.9144 32.4913C44.1195 32.6964 44.2348 32.9745 44.2349 33.2645V44.4139C44.2348 44.7039 44.1195 44.982 43.9144 45.1871C43.7093 45.3922 43.4312 45.5075 43.1412 45.5076ZM37.9612 43.3201H42.0474V34.3583H37.9612V43.3201Z" fill="#F02801"></path></svg>