<?xml version="1.0" encoding="UTF-8"?> <svg xmlns="http://www.w3.org/2000/svg" viewBox="0 0 193.7794 187.0221" fill="#fff"><g id="Слой_2" data-name="Слой 2"><g id="ар_2" data-name="ар 2"><path d="M152.9318,187.0221a32.00985,32.00985,0,0,1-31.9694-31.9692l.003-2.1243a32.24459,32.24459,0,0,1,.2942-4.3651,15.51151,15.51151,0,0,0-4.3648-12.9969l-14.251-14.2511a2.81407,2.81407,0,1,1,3.9797-3.9797l14.2509,14.2512a21.17028,21.17028,0,0,1,5.9616,17.7373,26.6162,26.6162,0,0,0-.2425,3.6064l-.0031,2.1256a26.37439,26.37439,0,0,0,26.3412,26.3377l2.1229-.0002h.0064c.8535,0,1.6958-.0401,2.5051-.1188a.58835.58835,0,0,0,.5359-.4141.58049.58049,0,0,0-.0509-.5425l-17.4659-12.4853a4.54411,4.54411,0,0,1-1.7727-4.8442l4.2203-16.6429a4.56946,4.56946,0,0,1,3.3074-3.3077l16.6497-4.2264a4.54328,4.54328,0,0,1,4.8442,1.7721l12.4864,17.4648a.63154.63154,0,0,0,.9529-.4736,25.08171,25.08171,0,0,0,.1198-2.5106v-2.1321a26.33878,26.33878,0,0,0-26.3411-26.3413l-2.1161.003h-.0176a26.6414,26.6414,0,0,0-3.594.2425,21.16788,21.16788,0,0,1-17.7378-5.9616l-14.4694-14.4693a2.81407,2.81407,0,0,1,3.9797-3.9797l14.4694,14.4694a15.51171,15.51171,0,0,0,12.997,4.3648,33.48373,33.48373,0,0,1,4.3707-.2942l2.1142-.003a31.96677,31.96677,0,0,1,31.9731,31.9699v2.1226c.0032,1.004-.0458,2.0359-.1457,3.0582a6.25553,6.25553,0,0,1-10.6489,3.8205l-.1642-.1641-12.3869-17.3259-15.3419,3.8943-3.8888,15.3353,17.3274,12.3865.1644.1642a6.25811,6.25811,0,0,1-3.8299,10.6523c-.9845.096-2.0107.145-3.0447.145h-.008Z"></path><path d="M82.1983,99.7041a2.8053,2.8053,0,0,1-1.9898-.8242L51.4561,70.1276a15.51466,15.51466,0,0,0-13.0037-4.364,32.38735,32.38735,0,0,1-4.3601.2952H31.9692A32.01337,32.01337,0,0,1,0,34.0898V31.9662c.0034-1.0408.0522-2.0629.1447-3.0474a6.1986,6.1986,0,0,1,4.1088-5.2932,6.20448,6.20448,0,0,1,6.544,1.4649l.1644.1644L23.3455,42.581l15.3444-3.8925,3.8896-15.3414L25.2549,10.9617l-.1642-.1645A6.20794,6.20794,0,0,1,23.629,4.2456,6.18581,6.18581,0,0,1,28.9131.1452C29.9356.0488,30.9629,0,31.9667,0h2.1231A32.00555,32.00555,0,0,1,66.059,31.9694v2.123a32.3803,32.3803,0,0,1-.2954,4.3602,15.51667,15.51667,0,0,0,4.3639,13.0038L97.948,79.2771a2.814,2.814,0,1,1-3.9796,3.9797L66.1479,55.4361a21.17593,21.17593,0,0,1-5.9607-17.7449,26.72549,26.72549,0,0,0,.2437-3.5993V31.9694A26.37108,26.37108,0,0,0,34.0898,5.6281H31.9667c-.8281,0-1.678.0405-2.5258.1205a.571.571,0,0,0-.5168.4046.59993.59993,0,0,0,.0531.551l17.462,12.4839a4.54457,4.54457,0,0,1,1.773,4.8432L43.9909,40.6809a4.56774,4.56774,0,0,1-3.3077,3.3082L24.0299,48.2136a4.54479,4.54479,0,0,1-4.8442-1.7739L6.703,28.9754a.63031.63031,0,0,0-.9554.4742c-.0762.8121-.1166,1.6636-.1195,2.5263v2.1134A26.37839,26.37839,0,0,0,31.9696,60.4307h2.1227a26.75043,26.75043,0,0,0,3.5991-.2434,21.178,21.178,0,0,1,17.7444,5.9606L84.1881,94.9002a2.81405,2.81405,0,0,1-1.9898,4.8039Z"></path><path d="M40.8478,187.0221l-2.1231-.0002h-.0085c-1.0333,0-2.0592-.049-3.0488-.1455a6.25786,6.25786,0,0,1-3.8242-10.6518l.1642-.1644,17.3272-12.3863-3.8888-15.3353-15.3417-3.8943L17.7169,161.7702l-.1642.1641a6.25535,6.25535,0,0,1-10.6495-3.8292,30.58034,30.58034,0,0,1-.145-3.0584v-2.1142a31.96711,31.96711,0,0,1,31.9694-31.9694l2.1237.003h.0217a32.24563,32.24563,0,0,1,4.3433.2942,15.51026,15.51026,0,0,0,12.9971-4.3648l65.4387-65.4391a15.517,15.517,0,0,0,4.3637-13.004,32.34481,32.34481,0,0,1-.2952-4.36v-2.123A31.96916,31.96916,0,0,1,159.6896,0h2.1231c1.0038,0,2.0311.0488,3.0538.1452a6.18591,6.18591,0,0,1,5.2839,4.1004,6.20794,6.20794,0,0,1-1.4617,6.5516l-.1642.1645L151.1998,23.3473l3.8897,15.3412,15.3444,3.8925,12.3836-17.3261.1644-.1644a6.25532,6.25532,0,0,1,10.6523,3.8237c.0932.9919.142,2.0142.1452,3.0431v2.132a32.01352,32.01352,0,0,1-31.9688,31.9695h-2.1235a32.38217,32.38217,0,0,1-4.3599-.2952,15.51694,15.51694,0,0,0-13.004,4.364l-65.4386,65.439A15.512,15.512,0,0,0,72.52,148.5635a32.3488,32.3488,0,0,1,.294,4.3709l.0032,2.1137A32.01132,32.01132,0,0,1,40.8478,187.0221Zm-2.1236-5.6283,2.1238.0002a26.37547,26.37547,0,0,0,26.3411-26.342l-.0031-2.1151a26.74136,26.74136,0,0,0-.2423-3.6131,21.17086,21.17086,0,0,1,5.9612-17.7368l65.4387-65.4391a21.17618,21.17618,0,0,1,17.7446-5.9606,26.74525,26.74525,0,0,0,3.5989.2434h2.1231a26.37839,26.37839,0,0,0,26.3411-26.3418V31.9662c-.0027-.8507-.0431-1.7019-.12-2.5211a.63035.63035,0,0,0-.955-.4697L174.5934,46.4402a4.54519,4.54519,0,0,1-4.8442,1.7734l-16.6527-4.2243a4.5701,4.5701,0,0,1-3.3081-3.308l-4.2213-16.65a4.54474,4.54474,0,0,1,1.7735-4.8434L164.8022,6.7044a.60063.60063,0,0,0,.0531-.5512.57108.57108,0,0,0-.5166-.4046c-.848-.08-1.6979-.1205-2.526-.1205h-2.1231a26.341,26.341,0,0,0-26.3409,26.3413v2.123a26.70492,26.70492,0,0,0,.2434,3.5985,21.17634,21.17634,0,0,1-5.9604,17.7452l-65.4386,65.439a21.17,21.17,0,0,1-17.7375,5.9616,26.626,26.626,0,0,0-3.5884-.2425h-.018l-2.1248-.003a26.33912,26.33912,0,0,0-26.3381,26.3409v2.1235a25.07441,25.07441,0,0,0,.1191,2.5109.63132.63132,0,0,0,.9536.4823l12.4864-17.4646a4.54269,4.54269,0,0,1,4.8451-1.7723l16.649,4.2264a4.56752,4.56752,0,0,1,3.3071,3.308l4.2206,16.6433a4.54369,4.54369,0,0,1-1.7731,4.8435L35.7286,180.3184a.63442.63442,0,0,0,.4795.9561C37.0245,181.3539,37.8563,181.3787,38.7242,181.3938Z"></path></g></g></svg> 