<?xml version="1.0" encoding="UTF-8"?> <svg xmlns="http://www.w3.org/2000/svg" viewBox="0 0 195.3594 195.3594" fill="#fff"><g id="Слой_2" data-name="Слой 2"><g id="ар_2" data-name="ар 2"><path d="M97.6797,195.3594A97.67971,97.67971,0,1,1,138.6704,8.992a2.814,2.814,0,1,1-2.3643,5.1073,92.07848,92.07848,0,1,0,37.4391,31.7228,2.81407,2.81407,0,1,1,4.6475-3.1744,97.6921,97.6921,0,0,1-80.713,152.7117Z"></path><path d="M168.9216,37.8483a2.80778,2.80778,0,0,1-2.1138-.9549,92.50556,92.50556,0,0,0-19.1507-16.5302,2.81407,2.81407,0,1,1,3.06-4.7236A98.13625,98.13625,0,0,1,171.033,33.1752a2.814,2.814,0,0,1-2.1114,4.6731Z"></path><path d="M97.6797,160.9664a63.28665,63.28665,0,1,1,63.2864-63.2867A63.35838,63.35838,0,0,1,97.6797,160.9664Zm0-120.9452A57.65855,57.65855,0,1,0,155.338,97.6797,57.72376,57.72376,0,0,0,97.6797,40.0212Z"></path><path d="M97.6797,82.5387a7.88338,7.88338,0,0,1-6.9992-3.857C86.4812,71.0835,81.3516,51.488,81.3516,39.45a2.81405,2.81405,0,0,1,5.6281,0c0,11.0599,4.8241,29.629,8.6268,36.5093a2.73475,2.73475,0,0,0,4.1464,0,54.05694,54.05694,0,0,0,3.5826-9.0227,2.8139,2.8139,0,0,1,5.3647,1.7006,60.668,60.668,0,0,1-4.0214,10.0445A7.88322,7.88322,0,0,1,97.6797,82.5387Z"></path><path d="M109.2359,58.2279a2.81658,2.81658,0,0,1-2.7585-3.3865A79.5959,79.5959,0,0,0,108.3796,39.45a2.81405,2.81405,0,0,1,5.6281,0,87.4064,87.4064,0,0,1-2.0194,16.5355A2.81519,2.81519,0,0,1,109.2359,58.2279Z"></path><path d="M111.1934,158.7187a2.81412,2.81412,0,0,1-2.814-2.8141c0-7.9965-2.5333-19.5666-5.0437-27.4859a2.814,2.814,0,0,1,5.3649-1.7006c2.4482,7.7221,5.3068,19.9997,5.3068,29.1865A2.81412,2.81412,0,0,1,111.1934,158.7187Z"></path><path d="M84.1655,158.7187a2.81412,2.81412,0,0,1-2.814-2.8141c0-12.0382,5.1297-31.6339,9.329-39.2319a8.279,8.279,0,0,1,13.9983,0,2.81407,2.81407,0,1,1-4.9259,2.7224,2.73475,2.73475,0,0,0-4.1464,0c-3.8027,6.8801-8.627,25.4492-8.627,36.5095A2.81419,2.81419,0,0,1,84.1655,158.7187Z"></path><path d="M77.8563,94.2421c-.0423,0-.0845-.0005-.1271-.0012-8.6796-.1623-28.2146-5.5179-38.6399-11.5369a2.81409,2.81409,0,0,1,2.814-4.8742c9.5785,5.5301,28.0717,10.6369,35.9313,10.784a2.73493,2.73493,0,0,0,2.0732-3.5911c-4.0571-6.733-17.7263-20.1952-27.3046-25.7255a2.81412,2.81412,0,0,1,2.8141-4.8742c10.4253,6.0194,24.8308,20.2596,29.3111,27.695a8.28715,8.28715,0,0,1-6.8721,12.1241Z"></path><path d="M154.8603,117.902a2.80158,2.80158,0,0,1-1.4045-.3774c-6.9969-4.0399-18.3723-7.6434-26.5422-9.4223a2.81416,2.81416,0,0,1,1.1977-5.4994c7.9667,1.735,20.1218,5.4073,28.1585,10.0475a2.81439,2.81439,0,0,1-1.4095,5.2516Z"></path><path d="M141.3463,141.3088a2.80122,2.80122,0,0,1-1.4044-.3774c-10.4252-6.019-24.8309-20.2591-29.3114-27.695a8.2793,8.2793,0,0,1,6.9994-12.1229,2.814,2.814,0,0,1-.0515,5.6276c-.0254,0-.0507-.0012-.077-.0007a2.742,2.742,0,0,0-2.0503,3.5915c4.0573,6.7333,17.7265,20.1955,27.3048,25.7253a2.81439,2.81439,0,0,1-1.4096,5.2516Z"></path><path d="M54.0125,141.3088a2.81439,2.81439,0,0,1-1.4095-5.2516c9.5782-5.53,23.2477-18.9925,27.3048-25.7255a2.74162,2.74162,0,0,0-2.0501-3.5913l-.0231.0002c-7.8598.1471-26.353,5.2539-35.9313,10.784a2.81409,2.81409,0,1,1-2.814-4.8742c10.4251-6.019,29.9601-11.3746,38.6399-11.5369a8.27923,8.27923,0,0,1,6.9992,12.1229c-4.4806,7.4357-18.886,21.6758-29.3113,27.695A2.80221,2.80221,0,0,1,54.0125,141.3088Z"></path><path d="M117.5025,94.2421a8.28716,8.28716,0,0,1-6.872-12.1241c4.4805-7.4359,18.886-21.6758,29.3114-27.6948a2.81409,2.81409,0,0,1,2.814,4.8742c-9.5783,5.5298-23.2477,18.992-27.3048,25.7253a2.3381,2.3381,0,0,0,.2127,2.2713,2.37384,2.37384,0,0,0,1.8605,1.3198c7.8598-.1471,26.3533-5.2539,35.9315-10.7838a2.81409,2.81409,0,0,1,2.814,4.8742c-10.4251,6.0188-29.9603,11.3744-38.6402,11.5367C117.5873,94.2416,117.5447,94.2421,117.5025,94.2421Z"></path><path d="M97.6797,17.5713a2.81419,2.81419,0,0,1-2.8141-2.814V2.8141a2.81405,2.81405,0,1,1,5.6281,0V14.7573A2.81417,2.81417,0,0,1,97.6797,17.5713Z"></path><path d="M97.6797,195.1879a2.81421,2.81421,0,0,1-2.8141-2.8141V180.4306a2.81405,2.81405,0,0,1,5.6281,0v11.9432A2.81419,2.81419,0,0,1,97.6797,195.1879Z"></path><path d="M156.254,41.8335a2.81405,2.81405,0,0,1-1.9898-4.8039l8.4451-8.4448a2.814,2.814,0,0,1,3.9797,3.9796l-8.4451,8.4449A2.80587,2.80587,0,0,1,156.254,41.8335Z"></path><path d="M30.6602,167.4276a2.81405,2.81405,0,0,1-1.9898-4.8039l8.4448-8.4451a2.81407,2.81407,0,0,1,3.9797,3.9797L32.65,166.6034A2.8053,2.8053,0,0,1,30.6602,167.4276Z"></path><path d="M192.4594,100.4081H180.5162a2.81405,2.81405,0,0,1,0-5.6281h11.9432a2.81405,2.81405,0,0,1,0,5.6281Z"></path><path d="M14.8429,100.4081H2.8997a2.81405,2.81405,0,0,1,0-5.6281H14.8429a2.81405,2.81405,0,0,1,0,5.6281Z"></path><path d="M164.6989,167.4271a2.80513,2.80513,0,0,1-1.9898-.8242l-8.4451-8.4451a2.814,2.814,0,0,1,3.9796-3.9797l8.4452,8.4451a2.81405,2.81405,0,0,1-1.9899,4.8039Z"></path><path d="M39.103,41.833a2.80564,2.80564,0,0,1-1.9898-.8242l-8.4454-8.445a2.81407,2.81407,0,0,1,3.9797-3.9797l8.4454,8.4451A2.814,2.814,0,0,1,39.103,41.833Z"></path><path d="M66.2377,23.7715a2.81462,2.81462,0,0,1-2.6046-1.7467L59.0997,10.9757a2.81394,2.81394,0,1,1,5.2067-2.1362l4.5335,11.0492a2.81575,2.81575,0,0,1-2.6022,3.8828Z"></path><path d="M133.6574,188.095a2.81449,2.81449,0,0,1-2.6045-1.7466l-4.5334-11.0492a2.81392,2.81392,0,1,1,5.2067-2.1361l4.5334,11.0491a2.81548,2.81548,0,0,1-2.6022,3.8828Z"></path><path d="M129.6354,23.9845a2.81555,2.81555,0,0,1-2.5951-3.9003l4.6073-11.0187a2.81409,2.81409,0,0,1,5.1926,2.171l-4.6074,11.0187A2.815,2.815,0,0,1,129.6354,23.9845Z"></path><path d="M61.114,187.8516a2.81551,2.81551,0,0,1-2.5951-3.9004l4.6077-11.0185a2.81412,2.81412,0,1,1,5.1925,2.1714l-4.6077,11.0185A2.81476,2.81476,0,0,1,61.114,187.8516Z"></path><path d="M174.3179,68.9656a2.81445,2.81445,0,0,1-1.0692-5.4181l11.0491-4.5334a2.81394,2.81394,0,1,1,2.1362,5.2067l-11.0491,4.5334A2.80213,2.80213,0,0,1,174.3179,68.9656Z"></path><path d="M9.9943,136.3854a2.81445,2.81445,0,0,1-1.0692-5.4181l11.0491-4.5334a2.81394,2.81394,0,1,1,2.1362,5.2067L11.0613,136.174A2.80213,2.80213,0,0,1,9.9943,136.3854Z"></path><path d="M185.1211,136.9728a2.80238,2.80238,0,0,1-1.0843-.2185l-11.0187-4.6074a2.814,2.814,0,1,1,2.171-5.1925l11.0187,4.6074a2.81452,2.81452,0,0,1-1.0867,5.411Z"></path><path d="M21.2519,68.4522a2.80347,2.80347,0,0,1-1.0843-.2185L9.1486,63.6263a2.814,2.814,0,1,1,2.171-5.1925l11.0189,4.6074a2.81449,2.81449,0,0,1-1.0866,5.411Z"></path></g></g></svg> 